<?xml version="1.0" encoding="iso-8859-1"?>
<!-- Generator: Adobe Illustrator 19.0.0, SVG Export Plug-In . SVG Version: 6.00 Build 0)  -->
<svg version="1.1" id="Capa_1" xmlns="http://www.w3.org/2000/svg" xmlns:xlink="http://www.w3.org/1999/xlink" x="0px" y="0px"
	 viewBox="0 0 469.345 469.345" style="enable-background:new 0 0 469.345 469.345;" xml:space="preserve">
<path style="fill:#F57000;" d="M426.67,128.008L426.67,128.008c-11.782,0-21.333-9.551-21.333-21.333v0v0
	c0-23.564-19.103-42.667-42.667-42.667H256.003c-23.564,0-42.667,19.103-42.667,42.667c0,0,0,0,0,0v0
	c0,11.782-9.551,21.333-21.333,21.333H85.337c-23.564,0-42.667,19.103-42.667,42.667l0,0v256c0,23.564,19.103,42.667,42.667,42.667
	c0,0,0,0,0,0H426.67c23.564,0,42.667-19.103,42.667-42.667v0v-256C469.337,147.11,450.234,128.008,426.67,128.008
	C426.67,128.008,426.67,128.008,426.67,128.008z"/>
<path style="fill:#F55F00;" d="M458.667,170.674L458.667,170.674c5.891,0,10.667,4.776,10.667,10.667v234.666
	c0,5.891-4.776,10.667-10.667,10.667l0,0c-5.891,0-10.667-4.776-10.667-10.667V181.341C448,175.45,452.776,170.674,458.667,170.674z
	"/>
<circle style="fill:#5628B4;" cx="128" cy="128.004" r="128"/>
<circle style="fill:#4513AD;" cx="128" cy="128.004" r="85.33"/>
<circle style="fill:#3802A7;" cx="128" cy="128.004" r="64"/>
<path style="fill:#9C81D3;" d="M128.003,0.008c-70.692,0-128,57.308-128,128s57.308,128,128,128s128-57.308,128-128l0,0
	C256.003,57.315,198.696,0.008,128.003,0.008C128.004,0.008,128.004,0.008,128.003,0.008L128.003,0.008z M105.376,29.955
	c12.497-12.497,32.758-12.497,45.255-0.001c12.497,12.497,12.497,32.758,0.001,45.255s-32.758,12.497-45.255,0.001
	c0,0,0,0-0.001-0.001C92.879,62.713,92.879,42.452,105.376,29.955C105.376,29.956,105.376,29.956,105.376,29.955z M27.759,119.228
	c-8.023-15.747-1.763-35.016,13.984-43.04s35.016-1.763,43.04,13.984s1.763,35.016-13.984,43.04c0,0,0,0-0.001,0
	C55.051,141.235,35.782,134.974,27.759,119.228z M88.675,220.633c-17.455,2.764-33.846-9.145-36.611-26.6s9.145-33.846,26.6-36.611
	c17.455-2.764,33.846,9.145,36.61,26.599C118.04,201.476,106.131,217.868,88.675,220.633z M106.67,128.008
	c0-11.782,9.551-21.333,21.333-21.333s21.333,9.551,21.333,21.333c0,11.782-9.551,21.333-21.333,21.333c0,0,0,0,0,0
	c-11.782,0-21.333-9.55-21.333-21.332C106.67,128.008,106.67,128.008,106.67,128.008z M203.943,194.034
	c-2.765,17.456-19.156,29.365-36.612,26.6s-29.365-19.156-26.6-36.612s19.156-29.365,36.612-26.6c0,0,0,0,0,0
	C194.799,160.186,206.708,176.578,203.943,194.034z M185.209,133.212c-15.747-8.023-22.009-27.293-13.985-43.04
	s27.293-22.009,43.04-13.985s22.009,27.293,13.985,43.04c0,0,0,0.001-0.001,0.001C220.225,134.974,200.956,141.235,185.209,133.212z
	"/>
<g>
	<path style="fill:#7E5AC6;" d="M96.576,4.056c-1.581,0.4-3.176,0.759-4.733,1.217c-11.13,3.52-17.299,15.395-13.78,26.525
		c2.665,8.426,10.29,14.305,19.117,14.738c1.174-6.042,3.516-11.901,8.195-16.581c12.496-12.497,32.757-12.497,45.254-0.001
		c0,0,0.001,0.001,0.001,0.001c5.264,5.264,7.806,11.977,8.635,18.837c13.175,5.297,24.817,13.803,33.868,24.744
		c17.201-3.732,34.17,7.186,37.902,24.386c3.069,14.146-3.78,28.583-16.677,35.154c2.201,9.462,10.596,16.184,20.31,16.264
		c11.782,0,21.333-9.55,21.333-21.332c0,0,0-0.001,0-0.001c0-70.692-57.307-128-127.999-128c0,0,0,0-0.001,0
		c-3.616,0-7.171,0.247-10.711,0.542C110.302,1.147,103.374,2.319,96.576,4.056z"/>
	<path style="fill:#7E5AC6;" d="M172.222,248c1.388-0.512,2.805-0.967,4.171-1.526c4.308-1.738,8.518-3.711,12.611-5.909
		l0.009-0.004l0.005-0.004l0.008-0.004c3.621-1.967,7.133-4.102,10.536-6.402l0.013-0.008c1.435-0.97,2.76-2.079,4.154-3.105
		c6.182-4.542,11.945-9.629,17.22-15.199c1.042-1.102,2.056-2.228,3.059-3.366c7.483-8.795,6.42-21.991-2.375-29.474
		c-5.282-4.494-12.448-6.077-19.131-4.225c1.724,4.892,2.219,10.132,1.443,15.26c-2.66,17.379-18.904,29.311-36.283,26.651
		c-7.261-1.111-13.915-4.699-18.832-10.156c-13.688,3.686-28.098,3.752-41.819,0.19c-11.876,12.966-32.015,13.849-44.981,1.973
		c-10.933-10.014-13.506-26.25-6.205-39.154c-0.03-0.047-0.066-0.087-0.096-0.134c-0.077-0.121-0.154-0.24-0.23-0.358
		c-0.061-0.103-0.122-0.204-0.184-0.306l-0.409-0.668c-6.159-10.057-19.281-13.257-29.378-7.164
		c-9.721,5.755-13.113,18.192-7.66,28.086c0.859,1.452,1.711,2.905,2.624,4.319c2.925,4.555,6.134,8.92,9.609,13.07
		c0.609,0.724,1.283,1.389,1.909,2.1c3.115,3.528,6.422,6.883,9.904,10.049c0.927,0.845,1.831,1.712,2.783,2.53
		c4.097,3.537,8.414,6.811,12.924,9.803c0.816,0.539,1.684,1.004,2.512,1.525c4.006,2.508,8.149,4.792,12.409,6.841
		c1.88,0.906,3.71,1.901,5.639,2.716l0.004,0.003c7.738,3.273,15.783,5.77,24.014,7.454l0.017,0.004
		c17.015,3.465,34.555,3.465,51.57,0.001l0.012-0.003h0.004c3.116-0.637,6.146-1.5,9.173-2.359
		C166.113,250.157,169.186,249.118,172.222,248L172.222,248z"/>
</g>
<g>
	<path style="fill:#C0AFE3;" d="M42.076,191.199c0.089,0.133,0.181,0.264,0.276,0.393c0.245,0.329,0.492,0.658,0.741,0.986
		l0.034,0.043c0.033,0.043,0.064,0.085,0.096,0.126c2.006,2.602,5.107,4.125,8.393,4.121c0.382,0,0.714-0.329,1.095-0.371
		c-0.201-0.829-0.513-1.605-0.648-2.464c-1.106-7.155,0.271-14.473,3.902-20.737c-7.53-11.91-11.949-25.52-12.852-39.582
		c-11.914-5.19-19.358-17.227-18.68-30.204c-1.982,8.017-3.022,16.239-3.098,24.497v0.288c0,0.036,0.001,0.073,0.001,0.108v0.171
		c0,0.039,0.001,0.079,0.001,0.118v0.124c0.001,0.009,0.001,0.018,0.001,0.027v0.137c0.001,0.036,0.001,0.073,0.001,0.108v0.027
		c0.001,0.039,0.001,0.078,0.001,0.117l0.001,0.025c0,0.04,0,0.077,0.001,0.117v0.007c0,0.042,0.001,0.081,0.001,0.121v0.027
		c0.001,0.04,0.001,0.079,0.003,0.12v0.017c0,0.038,0.001,0.073,0.001,0.109v0.023c0.001,0.039,0.001,0.079,0.003,0.117v0.03
		c0.001,0.035,0.001,0.07,0.003,0.105v0.017c0.001,0.038,0.001,0.078,0.003,0.116v0.034c0.001,0.039,0.003,0.077,0.003,0.116
		l0.001,0.016c0,0.036,0.001,0.073,0.001,0.108l0.001,0.027c0,0.039,0.001,0.081,0.003,0.118v0.021
		c0.001,0.038,0.003,0.074,0.003,0.112l0.001,0.016c0,0.04,0.001,0.079,0.003,0.118c0,0.01,0,0.019,0.001,0.029
		c0,0.039,0.001,0.081,0.003,0.118v0.013l0.004,0.111v0.027l0.004,0.116c0,0.01,0,0.019,0.001,0.029
		c0.001,0.034,0.001,0.068,0.003,0.102l0.001,0.022l0.004,0.116v0.03l0.004,0.12v0.001c0.001,0.04,0.003,0.079,0.005,0.118v0.031
		c0.001,0.038,0.004,0.077,0.005,0.116v0.021l0.004,0.105l0.001,0.023l0.004,0.116c0.001,0.01,0.002,0.02,0.001,0.03l0.004,0.105
		l0.001,0.021c0.001,0.036,0.003,0.076,0.005,0.112c0,0.01,0,0.021,0.001,0.031l0.004,0.115c0.001,0.008,0.001,0.016,0.001,0.023
		c0.001,0.034,0.003,0.068,0.005,0.103v0.025c0.003,0.039,0.004,0.077,0.005,0.116c0.001,0.01,0.002,0.02,0.001,0.03
		c0.003,0.035,0.004,0.07,0.005,0.105l0.001,0.016c0.001,0.039,0.004,0.079,0.005,0.117l0.001,0.03
		c0.001,0.039,0.004,0.078,0.005,0.116l0.001,0.021c0.001,0.034,0.004,0.069,0.005,0.103l0.001,0.027
		c0.003,0.039,0.004,0.077,0.007,0.116c0,0.009,0,0.017,0.001,0.026c0.001,0.035,0.004,0.07,0.005,0.105l0.001,0.02
		c0.001,0.038,0.004,0.077,0.007,0.115c0,0.011,0,0.022,0.001,0.033c0.001,0.038,0.004,0.076,0.007,0.113l0.001,0.022
		c0.001,0.034,0.003,0.068,0.005,0.102l0.001,0.029c0.003,0.036,0.005,0.077,0.007,0.113l0.003,0.031
		c0.001,0.031,0.003,0.063,0.005,0.094l0.001,0.03c0.003,0.036,0.004,0.072,0.007,0.108l0.003,0.04
		c0.003,0.034,0.004,0.068,0.007,0.102l0.001,0.031c0.003,0.031,0.004,0.064,0.007,0.095c0,0.012,0.001,0.023,0.003,0.035
		c0.001,0.038,0.004,0.074,0.007,0.112c0.001,0.01,0.002,0.019,0.001,0.029c0.003,0.031,0.005,0.061,0.007,0.094
		c0,0.01,0.001,0.021,0.003,0.031c0.003,0.038,0.004,0.073,0.007,0.109c0.002,0.013,0.002,0.026,0.003,0.039
		c0.003,0.031,0.005,0.063,0.007,0.095l0.003,0.036c0.003,0.031,0.004,0.061,0.007,0.094c0.001,0.01,0.003,0.029,0.003,0.039
		l0.008,0.105l0.003,0.04c0.003,0.027,0.004,0.052,0.005,0.081l0.004,0.04c0.003,0.035,0.004,0.069,0.007,0.104l0.004,0.042
		c0.001,0.029,0.004,0.061,0.007,0.091l0.003,0.034l0.008,0.098c0,0.014,0.001,0.026,0.003,0.04l0.008,0.108
		c0.002,0.011,0.002,0.022,0.003,0.033c0.003,0.027,0.005,0.057,0.007,0.086l0.004,0.04l0.008,0.103l0.004,0.043
		c0.001,0.027,0.004,0.052,0.005,0.078c0.001,0.018,0.004,0.035,0.005,0.052c0.003,0.031,0.004,0.06,0.007,0.09l0.004,0.043
		c0.003,0.035,0.005,0.07,0.009,0.105c0,0.012,0.001,0.023,0.003,0.035c0.003,0.027,0.004,0.056,0.007,0.083l0.004,0.04
		c0.003,0.034,0.005,0.07,0.009,0.103c0.001,0.014,0.003,0.03,0.003,0.043l0.008,0.082l0.003,0.034
		c0.004,0.035,0.007,0.07,0.009,0.105l0.004,0.042c0.003,0.035,0.007,0.068,0.009,0.103l0.004,0.036
		c0.001,0.026,0.004,0.055,0.007,0.081l0.004,0.046c0.004,0.035,0.007,0.069,0.01,0.103l0.003,0.039l0.008,0.081l0.004,0.038
		c0.004,0.036,0.007,0.069,0.01,0.105l0.003,0.039c0.004,0.033,0.007,0.064,0.009,0.096l0.005,0.043l0.008,0.083l0.004,0.044
		c0.004,0.035,0.007,0.066,0.01,0.102l0.004,0.04l0.008,0.078l0.004,0.042c0.003,0.034,0.007,0.066,0.01,0.1l0.004,0.044
		c0.003,0.031,0.007,0.064,0.009,0.095l0.004,0.033c0.004,0.033,0.007,0.063,0.01,0.094c0,0.01,0.003,0.03,0.004,0.04
		c0.003,0.035,0.007,0.07,0.01,0.104l0.004,0.039c0.003,0.026,0.005,0.052,0.009,0.079l0.004,0.04
		c0.004,0.035,0.007,0.068,0.01,0.102l0.005,0.044c0.003,0.027,0.007,0.056,0.009,0.085c0.001,0.017,0.003,0.029,0.005,0.047
		c0.003,0.029,0.005,0.055,0.009,0.085c0.001,0.017,0.004,0.031,0.005,0.049c0.004,0.031,0.008,0.065,0.01,0.098
		c0.003,0.013,0.004,0.031,0.005,0.046l0.008,0.069l0.005,0.047l0.012,0.1l0.005,0.044c0.003,0.026,0.005,0.051,0.009,0.077
		c0.001,0.018,0.004,0.036,0.005,0.053c0.004,0.029,0.007,0.056,0.01,0.083c0.001,0.017,0.004,0.034,0.005,0.052
		c0.004,0.029,0.007,0.056,0.01,0.086c0.003,0.017,0.005,0.038,0.007,0.056l0.008,0.066c0.003,0.014,0.005,0.036,0.007,0.051
		l0.012,0.095c0.001,0.017,0.004,0.034,0.005,0.051l0.008,0.064c0.003,0.025,0.007,0.051,0.009,0.076
		c0.003,0.023,0.005,0.046,0.009,0.069l0.007,0.053c0.003,0.023,0.005,0.049,0.009,0.073l0.008,0.069l0.009,0.066
		c0.001,0.017,0.004,0.033,0.005,0.051c0.004,0.031,0.009,0.064,0.013,0.095c0.001,0.018,0.004,0.03,0.005,0.048
		c0.004,0.025,0.007,0.048,0.009,0.073c0.003,0.013,0.004,0.031,0.007,0.046l0.012,0.092c0.003,0.017,0.004,0.034,0.007,0.052
		c0.004,0.025,0.007,0.052,0.01,0.077l0.008,0.063c0.003,0.022,0.007,0.044,0.009,0.066c0.003,0.018,0.005,0.038,0.007,0.055
		c0.005,0.031,0.009,0.061,0.013,0.094l0.007,0.048c0.003,0.022,0.005,0.044,0.009,0.066c0.001,0.018,0.004,0.036,0.007,0.053
		l0.012,0.09l0.008,0.052c0.003,0.022,0.007,0.046,0.009,0.068c0.003,0.023,0.007,0.052,0.01,0.077l0.008,0.06l0.008,0.056
		l0.012,0.082c0.003,0.021,0.007,0.043,0.009,0.064l0.008,0.059l0.008,0.056c0.004,0.029,0.008,0.059,0.013,0.087
		c0.001,0.017,0.005,0.043,0.008,0.06l0.008,0.055l0.012,0.085c0.003,0.02,0.007,0.039,0.009,0.059l0.008,0.059
		c0.004,0.025,0.007,0.047,0.01,0.072c0.004,0.023,0.008,0.049,0.01,0.073c0.004,0.02,0.005,0.035,0.009,0.055
		c0.003,0.025,0.005,0.04,0.009,0.065l0.012,0.082l0.009,0.059l0.008,0.052c0.004,0.03,0.009,0.059,0.013,0.09
		c0.003,0.018,0.007,0.038,0.009,0.057l0.008,0.057c0.004,0.02,0.007,0.042,0.009,0.06c0.005,0.029,0.009,0.057,0.013,0.085
		c0.004,0.02,0.007,0.038,0.009,0.056l0.008,0.056c0.005,0.03,0.009,0.059,0.014,0.089c0.003,0.021,0.007,0.039,0.009,0.06
		l0.008,0.051c0.005,0.031,0.009,0.057,0.014,0.087l0.008,0.057c0.004,0.021,0.007,0.04,0.01,0.061l0.008,0.051l0.016,0.095
		l0.008,0.049c0.003,0.021,0.007,0.042,0.009,0.063c0.004,0.021,0.007,0.042,0.01,0.064l0.014,0.087l0.005,0.035
		c0.007,0.038,0.013,0.076,0.018,0.113c0.003,0.012,0.005,0.026,0.007,0.038c0.004,0.021,0.008,0.046,0.01,0.066l0.008,0.042
		c0.005,0.034,0.01,0.069,0.017,0.103l0.008,0.048c0.003,0.021,0.007,0.04,0.01,0.061c0.003,0.02,0.007,0.039,0.009,0.057
		l0.016,0.091l0.007,0.043c0.007,0.034,0.012,0.069,0.018,0.103l0.007,0.044c0.004,0.023,0.008,0.042,0.012,0.065
		c0.003,0.013,0.005,0.027,0.007,0.04c0.007,0.035,0.013,0.072,0.018,0.105l0.008,0.044c0.004,0.023,0.007,0.042,0.012,0.065
		c0.001,0.011,0.003,0.021,0.005,0.031l0.02,0.116l0.008,0.042l0.017,0.096c0.003,0.017,0.005,0.034,0.009,0.051l0.01,0.065
		l0.008,0.043c0.007,0.034,0.012,0.064,0.018,0.099c0.003,0.016,0.005,0.033,0.009,0.049c0.003,0.021,0.007,0.042,0.01,0.063
		c0.003,0.012,0.005,0.025,0.007,0.038c0.008,0.038,0.014,0.077,0.021,0.115c0.003,0.009,0.004,0.022,0.007,0.033
		c0.013,0.074,0.026,0.143,0.039,0.219c0.003,0.011,0.005,0.022,0.007,0.034c0.008,0.038,0.014,0.077,0.021,0.113l0.008,0.038
		c0.003,0.021,0.008,0.047,0.012,0.068c0.003,0.011,0.005,0.022,0.007,0.034c0.007,0.038,0.014,0.078,0.022,0.116l0.005,0.031
		c0.01,0.052,0.018,0.096,0.027,0.147l0.001,0.004l0.013,0.065l0.008,0.042c0.007,0.038,0.013,0.07,0.02,0.108l0.008,0.039
		l0.013,0.068c0.002,0.009,0.004,0.019,0.005,0.029c0.008,0.04,0.016,0.078,0.023,0.12l0.007,0.034
		c0.005,0.025,0.009,0.043,0.013,0.066l0.007,0.03c0.007,0.038,0.016,0.082,0.023,0.12c0.001,0.012,0.004,0.023,0.007,0.036
		c0.008,0.038,0.016,0.077,0.022,0.113l0.008,0.035l0.013,0.068l0.007,0.031c0.008,0.04,0.016,0.077,0.023,0.118
		c0.002,0.011,0.004,0.021,0.007,0.031c0.004,0.025,0.009,0.046,0.013,0.07l0.005,0.02l0.025,0.128l0.008,0.035
		c0.008,0.036,0.016,0.076,0.023,0.113l0.007,0.036c0.005,0.021,0.009,0.046,0.014,0.065l0.007,0.036
		c0.008,0.036,0.017,0.077,0.023,0.115l0.008,0.033c0.004,0.023,0.009,0.044,0.013,0.068l0.007,0.029
		c0.008,0.04,0.017,0.081,0.025,0.121l0.008,0.033c0.008,0.04,0.017,0.081,0.025,0.121l0.007,0.027
		c0.005,0.023,0.009,0.047,0.014,0.07l0.007,0.027c0.008,0.04,0.017,0.086,0.026,0.126l0.005,0.023l0.016,0.072
		c0.001,0.008,0.003,0.016,0.005,0.023c0.008,0.04,0.018,0.085,0.026,0.125l0.008,0.031c0.008,0.04,0.016,0.077,0.025,0.118
		l0.008,0.031l0.014,0.068l0.007,0.031l0.027,0.122l0.005,0.026l0.016,0.069c0.002,0.01,0.004,0.019,0.007,0.029
		c0.008,0.04,0.017,0.079,0.026,0.12l0.008,0.033c0.016,0.074,0.031,0.145,0.048,0.219l0.007,0.027
		c0.009,0.04,0.018,0.083,0.027,0.124l0.007,0.025l0.016,0.07l0.007,0.026c0.009,0.04,0.018,0.083,0.027,0.124
		c0.003,0.009,0.005,0.019,0.007,0.029c0.017,0.074,0.034,0.145,0.051,0.219l0.007,0.029c0.01,0.043,0.021,0.087,0.03,0.13
		l0.004,0.017c0.007,0.023,0.012,0.049,0.017,0.073l0.005,0.02c0.01,0.047,0.02,0.086,0.031,0.133l0.005,0.022
		c0.017,0.074,0.035,0.148,0.052,0.221l0.007,0.025c0.017,0.074,0.035,0.15,0.053,0.223c0.001,0.007,0.003,0.014,0.005,0.021
		l0.031,0.13l0.005,0.022c0.018,0.073,0.036,0.15,0.055,0.224l0.004,0.02c0.018,0.074,0.038,0.151,0.056,0.224l0.005,0.022
		c0.012,0.047,0.021,0.087,0.033,0.133l0.005,0.017c0.018,0.077,0.036,0.146,0.055,0.223l0.007,0.025
		c0.018,0.073,0.036,0.145,0.055,0.217l0.008,0.031c0.01,0.039,0.021,0.082,0.031,0.122l0.007,0.023
		c0.005,0.022,0.012,0.048,0.018,0.072l0.005,0.018l0.031,0.122l0.009,0.036c0.018,0.07,0.036,0.142,0.055,0.211
		c0.002,0.011,0.005,0.022,0.009,0.033l0.031,0.121l0.007,0.025l0.018,0.069l0.007,0.026c0.01,0.039,0.021,0.081,0.031,0.12
		l0.009,0.031c0.018,0.073,0.036,0.141,0.056,0.214c0.004,0.012,0.005,0.02,0.009,0.03c0.01,0.04,0.021,0.083,0.033,0.122
		c0.002,0.008,0.004,0.016,0.007,0.023c0.005,0.023,0.012,0.046,0.018,0.069l0.008,0.031c0.01,0.039,0.021,0.074,0.031,0.115
		l0.008,0.03c0.02,0.073,0.039,0.142,0.059,0.215l0.008,0.029c0.012,0.04,0.025,0.087,0.035,0.126l0.005,0.02l0.02,0.07l0.007,0.023
		c0.01,0.04,0.023,0.086,0.035,0.125l0.007,0.025l0.02,0.072c0.014,0.049,0.026,0.094,0.04,0.143c0.002,0.01,0.005,0.02,0.009,0.03
		c0.018,0.07,0.04,0.145,0.06,0.215l0.008,0.029c0.012,0.039,0.022,0.077,0.034,0.117l0.008,0.026
		c0.007,0.023,0.013,0.049,0.02,0.072l0.001,0.005l0.04,0.141l0.008,0.025c0.021,0.072,0.042,0.146,0.063,0.219l0.007,0.021
		c0.013,0.046,0.023,0.083,0.038,0.13l0.005,0.018c0.008,0.026,0.013,0.047,0.021,0.073l0.003,0.009
		c0.013,0.042,0.027,0.09,0.039,0.133c0.004,0.01,0.007,0.021,0.009,0.031c0.022,0.072,0.042,0.138,0.063,0.211l0.009,0.031
		c0.013,0.043,0.025,0.081,0.036,0.122l0.005,0.018l0.022,0.073l0.004,0.012c0.013,0.043,0.026,0.09,0.039,0.132l0.008,0.026
		c0.022,0.073,0.043,0.143,0.065,0.216l0.008,0.025c0.012,0.039,0.026,0.087,0.039,0.126l0.005,0.02l0.021,0.069l0.008,0.023
		c0.012,0.039,0.025,0.081,0.036,0.12c0.004,0.01,0.007,0.02,0.009,0.03l0.065,0.211l0.009,0.03
		c0.012,0.036,0.025,0.079,0.036,0.115c0.002,0.01,0.005,0.019,0.009,0.029c0.007,0.023,0.013,0.044,0.021,0.066
		c0.002,0.011,0.005,0.021,0.009,0.031c0.012,0.039,0.023,0.073,0.035,0.112l0.01,0.031c0.007,0.023,0.014,0.046,0.021,0.068
		l0.001,0.007c0.014,0.042,0.03,0.092,0.043,0.134c0.004,0.011,0.008,0.022,0.01,0.034c0.013,0.042,0.029,0.087,0.042,0.13
		l0.003,0.009c0.008,0.023,0.016,0.047,0.022,0.07l0.008,0.023c0.013,0.039,0.027,0.085,0.04,0.124l0.007,0.023
		c0.023,0.07,0.047,0.143,0.07,0.215l0.007,0.023l0.07,0.215l0.008,0.021c0.013,0.043,0.026,0.083,0.04,0.126l0.007,0.021
		c0.023,0.072,0.048,0.147,0.073,0.217l0.005,0.018c0.023,0.07,0.048,0.146,0.072,0.217l0.008,0.021
		c0.014,0.042,0.027,0.081,0.04,0.124l0.009,0.023c0.007,0.023,0.014,0.047,0.022,0.069L26.868,162
		c0.013,0.042,0.027,0.083,0.042,0.126l0.009,0.026l0.022,0.066l0.004,0.01c0.016,0.046,0.03,0.087,0.044,0.132
		c0.004,0.01,0.008,0.021,0.01,0.031c0.013,0.038,0.027,0.078,0.04,0.117c0.003,0.008,0.006,0.015,0.008,0.023l0.025,0.069
		l0.005,0.018c0.014,0.039,0.029,0.082,0.042,0.121c0.004,0.01,0.008,0.021,0.01,0.031l0.022,0.064l0.012,0.031
		c0.012,0.036,0.025,0.073,0.036,0.108l0.013,0.036c0.013,0.035,0.025,0.072,0.038,0.107l0.01,0.033
		c0.008,0.02,0.016,0.044,0.022,0.064l0.012,0.034c0.013,0.035,0.026,0.07,0.038,0.105c0.004,0.012,0.008,0.023,0.012,0.035
		l0.022,0.061l0.012,0.034c0.013,0.036,0.026,0.072,0.038,0.107c0.005,0.013,0.008,0.023,0.013,0.036
		c0.012,0.031,0.025,0.069,0.035,0.1l0.014,0.039l0.022,0.061c0.004,0.013,0.009,0.026,0.014,0.039
		c0.01,0.033,0.022,0.064,0.034,0.096c0.005,0.014,0.009,0.027,0.014,0.04l0.021,0.06c0.007,0.014,0.013,0.033,0.018,0.048
		l0.033,0.09c0.004,0.014,0.009,0.027,0.014,0.042l0.03,0.082l0.02,0.056c0.009,0.022,0.014,0.036,0.022,0.059
		c0.004,0.013,0.009,0.026,0.014,0.039l0.034,0.094c0.005,0.014,0.012,0.031,0.017,0.047c0.008,0.02,0.012,0.033,0.02,0.052
		c0.008,0.023,0.017,0.047,0.025,0.07c0.009,0.022,0.016,0.042,0.025,0.064l0.02,0.055c0.007,0.018,0.012,0.031,0.018,0.051
		l0.031,0.082c0.007,0.02,0.013,0.036,0.02,0.055c0.007,0.016,0.012,0.031,0.017,0.046l0.033,0.089
		c0.007,0.016,0.012,0.031,0.018,0.047c0.007,0.018,0.013,0.036,0.021,0.055l0.02,0.055c0.009,0.025,0.022,0.057,0.031,0.082
		l0.016,0.044c0.008,0.02,0.016,0.04,0.023,0.059c0.009,0.027,0.018,0.052,0.029,0.079c0.008,0.018,0.014,0.035,0.021,0.055
		c0.007,0.016,0.012,0.031,0.018,0.047l0.029,0.077c0.008,0.02,0.016,0.04,0.022,0.059l0.02,0.049l0.022,0.06
		c0.009,0.025,0.02,0.052,0.03,0.077c0.007,0.017,0.012,0.034,0.018,0.049c0.007,0.017,0.014,0.036,0.02,0.052
		c0.012,0.03,0.022,0.056,0.033,0.085c0.008,0.018,0.012,0.031,0.02,0.051c0.007,0.016,0.013,0.034,0.02,0.051
		c0.009,0.022,0.018,0.046,0.026,0.068l0.025,0.064l0.021,0.052c0.008,0.02,0.016,0.042,0.023,0.061
		c0.009,0.022,0.017,0.046,0.026,0.068c0.008,0.018,0.016,0.039,0.022,0.057c0.007,0.016,0.013,0.034,0.02,0.051
		c0.01,0.027,0.023,0.057,0.034,0.086l0.017,0.043c0.008,0.02,0.016,0.039,0.023,0.06l0.017,0.043
		c0.012,0.031,0.023,0.06,0.035,0.091l0.016,0.039c0.009,0.023,0.02,0.048,0.029,0.073c0.008,0.018,0.014,0.035,0.022,0.055
		c0.008,0.021,0.018,0.046,0.026,0.066c0.007,0.016,0.012,0.03,0.018,0.047l0.033,0.081l0.021,0.052
		c0.008,0.018,0.014,0.036,0.022,0.055l0.018,0.046l0.035,0.087c0.007,0.016,0.01,0.029,0.017,0.044l0.027,0.068l0.021,0.052
		c0.009,0.023,0.02,0.047,0.029,0.072c0.007,0.016,0.013,0.03,0.018,0.046c0.012,0.029,0.025,0.059,0.036,0.087
		c0.005,0.013,0.01,0.027,0.016,0.039c0.008,0.021,0.017,0.043,0.025,0.063l0.018,0.044c0.012,0.03,0.023,0.059,0.036,0.089
		c0.004,0.012,0.01,0.027,0.016,0.04c0.01,0.023,0.018,0.044,0.029,0.068l0.021,0.053c0.01,0.023,0.021,0.049,0.03,0.073
		l0.018,0.043l0.035,0.086c0.005,0.012,0.01,0.026,0.016,0.039c0.009,0.022,0.02,0.046,0.029,0.069l0.016,0.038
		c0.013,0.03,0.026,0.061,0.038,0.091l0.016,0.038c0.01,0.025,0.021,0.049,0.031,0.076l0.013,0.029
		c0.012,0.031,0.026,0.063,0.039,0.094l0.016,0.036c0.012,0.03,0.025,0.06,0.036,0.09l0.014,0.034c0.01,0.023,0.02,0.047,0.03,0.07
		l0.017,0.042c0.013,0.031,0.026,0.06,0.039,0.091l0.014,0.033l0.033,0.081c0.004,0.008,0.008,0.016,0.012,0.025
		c0.013,0.033,0.027,0.065,0.04,0.096l0.014,0.034l0.039,0.09l0.012,0.027l0.035,0.085l0.013,0.031
		c0.014,0.033,0.027,0.063,0.042,0.096c0.004,0.009,0.008,0.018,0.013,0.027c0.012,0.027,0.022,0.053,0.034,0.081
		c0.004,0.01,0.008,0.019,0.013,0.029c0.013,0.033,0.026,0.063,0.04,0.094l0.014,0.035l0.039,0.089l0.009,0.021l0.039,0.092
		l0.013,0.029c0.014,0.034,0.029,0.065,0.043,0.099l0.011,0.022c0.012,0.029,0.025,0.057,0.038,0.086l0.01,0.026
		c0.014,0.033,0.029,0.064,0.043,0.098l0.013,0.03c0.013,0.029,0.026,0.057,0.039,0.087l0.008,0.018
		c0.014,0.033,0.027,0.063,0.043,0.096l0.013,0.03c0.014,0.033,0.029,0.065,0.043,0.096l0.012,0.027l0.035,0.081
		c0.005,0.009,0.009,0.018,0.013,0.027c0.014,0.033,0.029,0.065,0.043,0.096l0.013,0.03c0.013,0.03,0.026,0.059,0.04,0.089
		l0.007,0.014c0.014,0.034,0.03,0.068,0.044,0.1l0.013,0.027c0.014,0.034,0.03,0.069,0.046,0.102l0.005,0.012
		c0.014,0.031,0.029,0.064,0.043,0.096l0.01,0.021c0.016,0.035,0.03,0.066,0.046,0.1l0.01,0.026
		c0.014,0.029,0.026,0.056,0.039,0.085l0.009,0.021l0.046,0.099l0.013,0.029c0.016,0.033,0.03,0.066,0.046,0.099l0.007,0.013
		c0.013,0.031,0.029,0.063,0.042,0.094c0.004,0.008,0.008,0.015,0.012,0.023c0.014,0.033,0.03,0.066,0.046,0.098l0.012,0.027
		c0.013,0.029,0.027,0.059,0.04,0.087l0.008,0.017c0.016,0.033,0.031,0.066,0.047,0.099l0.012,0.027l0.047,0.102l0.005,0.009
		c0.014,0.031,0.029,0.063,0.044,0.095c0.003,0.008,0.007,0.017,0.012,0.025c0.016,0.034,0.031,0.068,0.047,0.1l0.008,0.018
		c0.014,0.031,0.03,0.061,0.043,0.092l0.009,0.017c0.016,0.034,0.031,0.068,0.048,0.102l0.009,0.022
		c0.017,0.035,0.034,0.069,0.049,0.104c0.017,0.035,0.034,0.072,0.051,0.107l0.009,0.018c0.017,0.035,0.033,0.069,0.049,0.104
		l0.007,0.014l0.047,0.098l0.005,0.012c0.017,0.035,0.034,0.069,0.051,0.104l0.009,0.02c0.034,0.072,0.068,0.143,0.103,0.214
		l0.007,0.014c0.035,0.072,0.07,0.145,0.105,0.217l0.005,0.012c0.018,0.036,0.034,0.07,0.052,0.107l0.007,0.013
		c0.017,0.035,0.035,0.072,0.052,0.108c0.018,0.036,0.036,0.073,0.053,0.109l0.007,0.012l0.052,0.108l0.004,0.008
		c0.017,0.033,0.034,0.068,0.049,0.1l0.008,0.014c0.017,0.035,0.034,0.069,0.051,0.104l0.008,0.016
		c0.035,0.07,0.072,0.145,0.107,0.215l0.007,0.013l0.109,0.219l0.004,0.008l0.055,0.109l0.004,0.009
		c0.017,0.034,0.035,0.069,0.052,0.103l0.004,0.008c0.018,0.035,0.036,0.072,0.053,0.107l0.008,0.013
		c0.036,0.073,0.073,0.145,0.108,0.216l0.007,0.01c0.018,0.036,0.036,0.073,0.055,0.108l0.004,0.008
		c0.018,0.036,0.036,0.072,0.056,0.108v0.001c0.018,0.038,0.038,0.074,0.057,0.112l0.003,0.007c0.038,0.073,0.074,0.145,0.112,0.216
		l0.007,0.014c0.02,0.036,0.038,0.072,0.056,0.107l0.003,0.005l0.056,0.108l0.001,0.004c0.02,0.038,0.039,0.073,0.059,0.112
		l0.001,0.003c0.039,0.076,0.078,0.15,0.117,0.225l0.001,0.001c2.436,4.653,5.212,9.12,8.305,13.365
		C41.85,190.911,41.962,191.057,42.076,191.199L42.076,191.199z"/>
	<path style="fill:#C0AFE3;" d="M226.627,87.583c-15.373-37.179-50.41-62.5-90.535-65.427c5.294,1.395,10.389,3.65,14.539,7.799
		c5.264,5.264,7.806,11.977,8.635,18.837c13.175,5.297,24.817,13.803,33.869,24.744C206.153,70.587,219.607,76.23,226.627,87.583
		L226.627,87.583z"/>
	<path style="fill:#C0AFE3;" d="M230.18,158.725c0.01-0.033,0.021-0.066,0.03-0.099l0.005-0.016
		c0.039-0.134,0.079-0.268,0.118-0.402l0.012-0.039c0.009-0.031,0.018-0.063,0.027-0.092c0.007-0.023,0.014-0.048,0.021-0.072
		c0.003-0.007,0.005-0.015,0.007-0.022c0.061-0.211,0.124-0.427,0.185-0.638c0.043-0.154,0.082-0.309,0.117-0.462
		c0.053-0.161,0.103-0.324,0.15-0.49c1.203-4.37,2.125-8.813,2.759-13.301l0.001-0.003c0.047-0.332,0.091-0.659,0.135-0.992
		l0.001-0.01c0.009-0.076,0.021-0.161,0.031-0.238v-0.008c0.004-0.023,0.007-0.049,0.01-0.073l0.003-0.018
		c0.009-0.077,0.02-0.154,0.029-0.23l0.001-0.013c0.004-0.023,0.007-0.046,0.009-0.07c0.002-0.007,0.002-0.015,0.003-0.022
		c0.01-0.077,0.02-0.156,0.03-0.233v-0.007c0.003-0.025,0.007-0.049,0.009-0.073l0.003-0.021c0.009-0.079,0.018-0.155,0.029-0.234
		v-0.007c0.004-0.023,0.007-0.049,0.009-0.073l0.003-0.02l0.027-0.23l0.001-0.013l0.008-0.068l0.004-0.031
		c0.003-0.021,0.004-0.04,0.007-0.061l0.004-0.034c0.004-0.035,0.009-0.074,0.013-0.109l0.004-0.036
		c0.001-0.017,0.005-0.042,0.007-0.059l0.004-0.036l0.008-0.063l0.001-0.02c0.005-0.042,0.01-0.09,0.016-0.132l0.001-0.023
		c0.004-0.023,0.005-0.039,0.008-0.064l0.004-0.038c0.001-0.017,0.004-0.038,0.007-0.055c0.001-0.018,0.004-0.038,0.005-0.056
		c0.003-0.025,0.007-0.053,0.009-0.078c0.001-0.017,0.004-0.034,0.005-0.051c0.001-0.018,0.004-0.034,0.005-0.052
		c0.001-0.016,0.004-0.031,0.005-0.047c0.001-0.017,0.004-0.034,0.005-0.052c0.003-0.021,0.005-0.04,0.007-0.061l0.008-0.068
		c0.001-0.018,0.004-0.038,0.005-0.057c0.003-0.017,0.004-0.031,0.005-0.049c0.001-0.017,0.004-0.034,0.005-0.051l0.005-0.048
		c0.003-0.02,0.004-0.039,0.007-0.059l0.008-0.081l0.004-0.046c0.003-0.017,0.004-0.036,0.007-0.053l0.004-0.047
		c0.001-0.017,0.004-0.034,0.005-0.052c0.003-0.02,0.004-0.039,0.007-0.059c0.001-0.025,0.004-0.051,0.007-0.076
		c0.003-0.017,0.004-0.034,0.005-0.051s0.004-0.034,0.005-0.051c0.001-0.018,0.003-0.035,0.005-0.052l0.004-0.046l0.008-0.078
		l0.004-0.049c0.003-0.021,0.005-0.042,0.007-0.064l0.004-0.047c0.003-0.017,0.004-0.034,0.005-0.051l0.005-0.051
		c0.001-0.023,0.004-0.048,0.007-0.072c0.001-0.018,0.004-0.038,0.005-0.055c0.001-0.021,0.004-0.039,0.005-0.06l0.004-0.051
		c0.003-0.017,0.004-0.034,0.005-0.051l0.004-0.048c0.003-0.023,0.005-0.047,0.007-0.07c0.001-0.018,0.004-0.039,0.005-0.056
		c0.001-0.021,0.004-0.043,0.005-0.063l0.004-0.047c0.003-0.018,0.004-0.036,0.005-0.055l0.004-0.047
		c0.003-0.023,0.004-0.047,0.007-0.07c0.001-0.021,0.003-0.04,0.005-0.061l0.004-0.055c0.003-0.018,0.004-0.034,0.005-0.052
		l0.004-0.053l0.004-0.044c0.003-0.027,0.005-0.055,0.007-0.082l0.004-0.042c0.001-0.023,0.004-0.046,0.005-0.069l0.004-0.043
		c0.001-0.02,0.003-0.039,0.005-0.057c0-0.014,0.001-0.033,0.003-0.046l0.008-0.086c0-0.011,0.001-0.023,0.003-0.034
		c0.001-0.023,0.004-0.048,0.005-0.073c0.001-0.014,0.003-0.026,0.003-0.04c0.003-0.022,0.004-0.044,0.005-0.065l0.004-0.038
		c0.001-0.029,0.004-0.059,0.007-0.087l0.003-0.036c0.001-0.023,0.004-0.048,0.005-0.072c0.001-0.014,0.003-0.027,0.003-0.042
		c0.003-0.021,0.004-0.04,0.005-0.061c0.001-0.014,0.001-0.029,0.003-0.042c0.003-0.026,0.004-0.053,0.007-0.079l0.003-0.048
		c0.003-0.021,0.004-0.043,0.005-0.065l0.004-0.044l0.004-0.06c0.001-0.014,0.001-0.029,0.003-0.042
		c0.003-0.027,0.004-0.055,0.005-0.082l0.004-0.043l0.004-0.069l0.004-0.044l0.004-0.056c0-0.014,0.001-0.034,0.003-0.048
		c0.001-0.025,0.004-0.051,0.005-0.076c0.001-0.014,0.003-0.029,0.003-0.043c0.003-0.025,0.004-0.049,0.005-0.074l0.003-0.038
		l0.004-0.069l0.003-0.034c0.003-0.031,0.004-0.064,0.007-0.095l0.001-0.025c0.001-0.026,0.003-0.052,0.005-0.078
		c0-0.014,0.001-0.027,0.003-0.042l0.004-0.061c0-0.014,0.001-0.027,0.003-0.042c0.001-0.03,0.003-0.06,0.005-0.09l0.001-0.027
		c0.001-0.026,0.003-0.052,0.005-0.078l0.001-0.04l0.004-0.068l0.003-0.034c0.001-0.034,0.004-0.068,0.005-0.102l0.001-0.003
		c0.001-0.033,0.003-0.065,0.005-0.098l0.001-0.034l0.004-0.072l0.003-0.033c0.004-0.068,0.007-0.135,0.01-0.203
		c0.001-0.01,0.002-0.021,0.001-0.031l0.004-0.074l0.003-0.033c0.001-0.033,0.003-0.068,0.005-0.1v-0.009l0.004-0.092l0.003-0.034
		c0.001-0.023,0.003-0.048,0.003-0.07l0.003-0.035l0.004-0.1l0.001-0.007l0.004-0.095l0.001-0.034l0.004-0.074l0.001-0.03
		c0.003-0.068,0.007-0.135,0.009-0.203l0.001-0.034c0.001-0.023,0.003-0.047,0.003-0.072c0.001-0.011,0.002-0.023,0.001-0.034
		c0.003-0.034,0.004-0.068,0.005-0.102v-0.003l0.004-0.099c0-0.01,0-0.021,0.001-0.031c0.001-0.025,0.001-0.051,0.003-0.076
		l0.001-0.031l0.004-0.102v-0.004l0.004-0.098l0.001-0.033c0.001-0.025,0.001-0.049,0.003-0.073l0.001-0.034l0.004-0.099v-0.013
		c0.001-0.03,0.001-0.059,0.003-0.089c0.001-0.014,0.001-0.026,0.001-0.039c0.001-0.022,0.001-0.044,0.003-0.066l0.001-0.038
		c0.001-0.031,0.001-0.064,0.003-0.095l0.001-0.017c0-0.03,0.001-0.059,0.003-0.089c0-0.012,0-0.024,0.001-0.036
		c0-0.023,0.001-0.044,0.001-0.068c0.001-0.013,0.002-0.025,0.001-0.038c0.001-0.033,0.003-0.065,0.003-0.098v-0.012
		c0.001-0.03,0.003-0.061,0.003-0.091c0.001-0.012,0.002-0.024,0.001-0.036c0.001-0.023,0.001-0.047,0.003-0.069v-0.036
		c0.001-0.034,0.003-0.066,0.003-0.1v-0.005c0.001-0.033,0.003-0.064,0.003-0.096c0.001-0.011,0.002-0.023,0.001-0.034
		c0-0.025,0.001-0.048,0.001-0.073c0.001-0.011,0.002-0.023,0.001-0.034c0-0.034,0.001-0.068,0.003-0.102v-0.003
		c0-0.033,0.001-0.066,0.001-0.098c0.001-0.012,0.002-0.023,0.001-0.035c0-0.025,0.001-0.048,0.001-0.073
		c0-0.011,0-0.022,0.001-0.033c0-0.034,0.001-0.068,0.001-0.103v-0.001c0.001-0.033,0.001-0.065,0.001-0.098
		c0.001-0.014,0.001-0.025,0.001-0.039c0-0.022,0.001-0.044,0.001-0.066v-0.038c0.001-0.034,0.001-0.068,0.003-0.102
		c0-0.034,0-0.068,0.001-0.102v-0.031c0.001-0.026,0.001-0.052,0.001-0.078v-0.029c0.001-0.069,0.003-0.138,0.003-0.207l0.001-0.03
		v-0.077c0-0.01,0-0.021,0.001-0.031c0-0.069,0.001-0.137,0.001-0.204v-0.035c0-0.025,0.001-0.048,0.001-0.073v-0.137
		c0.001-0.034,0.001-0.068,0.001-0.1v-0.142c0.001-0.068,0.001-0.135,0.001-0.203v-0.242c-0.076-8.259-1.115-16.48-3.098-24.497
		c0.677,12.951-6.736,24.968-18.613,30.174c-0.311,5.747-1.205,11.447-2.667,17.013c-0.044,0.16-0.083,0.32-0.12,0.48
		c-0.047,0.139-0.092,0.28-0.134,0.423l-0.263,0.898c-1.652,5.662,1.572,11.596,7.221,13.292
		C222.588,167.474,228.486,164.313,230.18,158.725L230.18,158.725z"/>
	<path style="fill:#C0AFE3;" d="M41.743,76.187c6.526-3.294,13.991-4.231,21.129-2.651C71.923,62.595,83.566,54.09,96.74,48.793
		c0.829-6.861,3.371-13.573,8.635-18.837c4.15-4.15,9.245-6.405,14.539-7.799C79.79,25.084,44.752,50.404,29.38,87.583
		C32.399,82.74,36.67,78.803,41.743,76.187L41.743,76.187z"/>
</g>
<path style="fill:#E7455F;" d="M140.504,200.847L286.18,55.171c16.663-16.663,43.678-16.663,60.341,0l110.328,110.328
	c16.663,16.663,16.663,43.678,0,60.341L311.172,371.515c-16.663,16.663-43.678,16.663-60.341,0L140.504,261.188
	C123.842,244.525,123.842,217.51,140.504,200.847z"/>
<path style="fill:#5628B4;" d="M341.337,341.341l115.503-115.504c16.662-16.662,16.663-43.676,0.001-60.339
	c0,0-0.001-0.001-0.001-0.001l-16.156-16.156h-56.68c-23.564,0-42.666,19.102-42.667,42.666c0,0,0,0.001,0,0.001V341.341z"/>
<path style="fill:#EF8192;" d="M379.585,89.759c-5.891-5.891-15.442-5.891-21.333,0l-33.83,33.83
	c-5.891,5.891-5.891,15.441,0,21.332v0.001c5.891,5.891,15.442,5.891,21.333,0l33.83-33.83
	C385.476,105.201,385.476,95.65,379.585,89.759L379.585,89.759z"/>
<path style="fill:#673DBC;" d="M468.986,192.008H256.003c-23.564,0-42.666,19.102-42.667,42.666c0,0,0,0.001,0,0.001v99.345
	l37.491,37.491c16.662,16.662,43.676,16.663,60.339,0.001c0,0,0.001-0.001,0.001-0.001l145.672-145.673
	C465.706,216.921,470.156,204.528,468.986,192.008L468.986,192.008z"/>
<circle style="fill:#F7B236;" cx="309.34" cy="117.344" r="32"/>
<path style="fill:#EF8192;" d="M181.337,181.341l42.667-42.667c5.891-5.891,15.442-5.891,21.333,0
	c5.891,5.891,15.442,5.891,21.333,0c0,0,0,0,0,0l21.333-21.333c5.891-5.891,15.442-5.891,21.333,0v0
	c5.891,5.891,5.891,15.442,0,21.333l-42.667,42.667c-5.891,5.891-15.442,5.891-21.333,0s-15.442-5.891-21.333,0l0,0l-21.333,21.333
	c-5.891,5.891-15.442,5.891-21.333,0c-5.966-5.815-6.219-15.231-0.403-21.197C181.023,181.386,181.113,181.295,181.337,181.341z"/>
<path style="fill:#F7B236;" d="M426.67,469.341H85.337c-23.564,0-42.667-19.103-42.667-42.667L0.003,256.008
	c0-23.564,19.103-42.667,42.667-42.667c0,0,0,0,0,0h341.333c23.564,0,42.667,19.102,42.667,42.667v0l42.667,170.667
	C469.337,450.238,450.234,469.341,426.67,469.341L426.67,469.341L426.67,469.341z"/>
<path style="fill:#F9D187;" d="M32.004,234.674H394.67c5.891,0,10.667,4.776,10.667,10.667l0,0c0,5.891-4.776,10.667-10.667,10.667
	H32.004c-5.891,0-10.667-4.776-10.667-10.667l0,0C21.337,239.45,26.113,234.674,32.004,234.674z"/>
<g>
	<path style="fill:#F58E0B;" d="M96.007,448.004h319.996c5.891,0,10.667,4.776,10.667,10.667l0,0
		c0,5.891-4.776,10.667-10.667,10.667H96.007c-5.891,0-10.667-4.776-10.667-10.667l0,0C85.34,452.78,90.116,448.004,96.007,448.004z
		"/>
	<path style="fill:#F58E0B;" d="M106.67,437.341V333.94l85.333-14.221v68.727c-6.729-2.933-13.992-4.444-21.333-4.438
		c-23.564,0-42.667,14.327-42.667,32s19.103,32,42.667,32s42.667-14.327,42.667-32V298.679c0-11.782-9.55-21.333-21.332-21.333
		c-1.176,0-2.35,0.097-3.509,0.29l-85.333,14.221c-10.286,1.715-17.826,10.615-17.826,21.043v96.878
		c-6.729-2.933-13.992-4.444-21.333-4.438c-8.76-0.059-17.394,2.087-25.107,6.24l3.773,15.094
		c0.027,19.69,13.545,36.796,32.695,41.374C93.376,464.298,106.67,452.043,106.67,437.341L106.67,437.341z"/>
</g>
<path style="fill:#D80E70;" d="M81.829,270.525c-10.287,1.714-17.826,10.615-17.826,21.043v96.877
	c-6.729-2.933-13.992-4.444-21.333-4.438c-23.564,0-42.667,14.327-42.667,32s19.103,32,42.667,32s42.667-14.327,42.667-32V312.607
	l85.333-14.221v68.726c-6.729-2.933-13.992-4.444-21.333-4.437c-23.564,0-42.667,14.327-42.667,32s19.103,32,42.667,32
	s42.667-14.327,42.667-32V277.346c0-11.782-9.551-21.333-21.333-21.333c-1.175,0-2.348,0.097-3.507,0.29L81.829,270.525z"/>
<g>
	<circle style="fill:#E76BA7;" cx="32" cy="416.004" r="10.667"/>
	<circle style="fill:#E76BA7;" cx="138.67" cy="394.674" r="10.667"/>
</g>
<g>
</g>
<g>
</g>
<g>
</g>
<g>
</g>
<g>
</g>
<g>
</g>
<g>
</g>
<g>
</g>
<g>
</g>
<g>
</g>
<g>
</g>
<g>
</g>
<g>
</g>
<g>
</g>
<g>
</g>
</svg>
