<svg width="240" height="137" viewBox="0 0 240 137" fill="none" xmlns="http://www.w3.org/2000/svg">
<g clip-path="url(#clip0_30_677)">
<path d="M48 0.5H16C7.16344 0.5 0 7.66344 0 16.5V48.5C0 57.3366 7.16344 64.5 16 64.5H48C56.8366 64.5 64 57.3366 64 48.5V16.5C64 7.66344 56.8366 0.5 48 0.5Z" fill="#25262C"/>
<path d="M218 71.5H22C9.84974 71.5 0 81.3497 0 93.5V114.5C0 126.65 9.84974 136.5 22 136.5H218C230.15 136.5 240 126.65 240 114.5V93.5C240 81.3497 230.15 71.5 218 71.5Z" fill="#25262C"/>
<path d="M218 22.5H96C83.8497 22.5 74 32.3497 74 44.5V114.5C74 126.65 83.8497 136.5 96 136.5H218C230.15 136.5 240 126.65 240 114.5V44.5C240 32.3497 230.15 22.5 218 22.5Z" fill="#25262C"/>
<path d="M19.25 71.5H27.7555C40.1696 71.3064 62.2603 70.1617 66.6875 64.5625C72.9175 56.6833 74 41.75 74 41.75V71.5H27.7555C22.7005 71.5788 19.25 71.5 19.25 71.5Z" fill="#25262C"/>
</g>
<defs>
<clipPath id="clip0_30_677">
<rect width="240" height="136" fill="white" transform="translate(0 0.5)"/>
</clipPath>
</defs>
</svg>
