<svg xmlns="http://www.w3.org/2000/svg" xmlns:xlink="http://www.w3.org/1999/xlink" viewBox="0 0 500 500"><defs><clipPath id="freepik--clip-path--inject-35"><path d="M273.59,136.5s8.7,27.94,21.91,35.16c-.29-9.58-.63-18.58-.75-24.41-.34-16.12-23.51-30.56-47-26.87s-35.6,17.46-34.26,30.23c0,0-.11,8.77-.1,19.9C224.73,165.62,254.59,152,273.59,136.5Z" style="fill:#263238"></path></clipPath><clipPath id="freepik--clip-path-2--inject-35"><path d="M277.19,237.19s0,12.18-9.13,31.59-9.52,38.82-3.43,53.28,22.46,20.18,40,13.71,19.79-35.4,17.89-52.91-19-38.06-22.84-48.34-6.47-15.6-6.47-15.6-9.9,13.7-16,16.74Z" style="fill:#263238;stroke:#263238;stroke-linecap:round;stroke-linejoin:round"></path></clipPath></defs><g id="freepik--background-simple--inject-35"><path d="M166.19,56.37S90.42,95,52.63,154.47s-34.8,136,11.12,192.78,133.69,49.34,207.18,85.32,154.57,28.58,189.32-47.66S442.6,280.2,433.6,192,345.07-25.43,166.19,56.37Z" style="fill:#04ABF2"></path><path d="M166.19,56.37S90.42,95,52.63,154.47s-34.8,136,11.12,192.78,133.69,49.34,207.18,85.32,154.57,28.58,189.32-47.66S442.6,280.2,433.6,192,345.07-25.43,166.19,56.37Z" style="fill:#fff;opacity:0.7000000000000001"></path></g><g id="freepik--Plants--inject-35"><line x1="29" y1="456.04" x2="465.14" y2="456.04" style="fill:none;stroke:#263238;stroke-linecap:round;stroke-linejoin:round"></line><path d="M73,420.9s-26.49-46.52-20.38-58.35S74.36,372,74.36,372s-13.59-43.37-6.11-62.3,20.37,0,21,13.41-2.71,36.27-2.71,36.27,5.43-47.31,18.33-33.12-16.3,61.51-16.3,61.51,19.7-11,19,3.16-23.77,26.81-23.77,26.81" style="fill:#04ABF2"></path><path d="M73.23,412.23s-24.52-22.87-12.58-33.12,18.23,11,18.23,11-13.2-65.45,8.18-67.82,5.65,56.78,5.65,56.78,18.23-25.24,17-4.73S81.4,412.23,81.4,412.23" style="fill:none;stroke:#263238;stroke-miterlimit:10"></path><line x1="85.27" y1="408.06" x2="68.7" y2="390.11" style="fill:none;stroke:#263238;stroke-miterlimit:10"></line><line x1="81.82" y1="409.45" x2="86.3" y2="356.98" style="fill:none;stroke:#263238;stroke-miterlimit:10"></line><line x1="81.12" y1="405.65" x2="95.97" y2="385.97" style="fill:none;stroke:#263238;stroke-miterlimit:10"></line><polygon points="102.59 401.99 56.77 401.99 61.35 456.04 98.01 456.04 102.59 401.99" style="fill:#263238"></polygon></g><g id="freepik--text-balloons--inject-35"><path d="M398,127.78,346.16,131a11.44,11.44,0,0,0-10.73,11.57l.26,20.83L320.62,165l15.19,7.84a11.44,11.44,0,0,0,11.65,11.28l50.33-.92a11.44,11.44,0,0,0,11.22-11l1.16-32.56A11.43,11.43,0,0,0,398,127.78Z" style="fill:#fff;stroke:#263238;stroke-miterlimit:10"></path><rect x="353.55" y="133.16" width="33.95" height="21.38" style="fill:#8c8c8c;stroke:#263238;stroke-linecap:round;stroke-linejoin:round"></rect><rect x="368.22" y="133.16" width="19.28" height="21.38" style="fill:#696969;stroke:#263238;stroke-linecap:round;stroke-linejoin:round"></rect><rect x="363.61" y="133.16" width="13.83" height="21.38" style="fill:#fff;stroke:#263238;stroke-linecap:round;stroke-linejoin:round"></rect><path d="M353.3,171.84v-5.43c0-2.61,1.85-4.35,4.64-4.35s4.64,1.7,4.64,4.27c0,.12-.1.2-.25.22l-.89.06c-.16,0-.26,0-.26-.12v-.12a3.24,3.24,0,0,0-6.48,0v5.53a3.24,3.24,0,0,0,6.48,0,.21.21,0,0,1,.26-.22l.89,0c.15,0,.25,0,.25.1v.1c0,2.59-1.85,4.31-4.64,4.31S353.3,174.47,353.3,171.84Z" style="fill:#263238"></path><path d="M365.23,163.23a1.07,1.07,0,1,1,1.07,1A1,1,0,0,1,365.23,163.23Zm.38,12.56v-9.48a.24.24,0,0,1,.25-.26h.89a.24.24,0,0,1,.26.26v9.48a.24.24,0,0,1-.26.26h-.89A.24.24,0,0,1,365.61,175.79Z" style="fill:#263238"></path><path d="M377.48,169.21v6.58a.24.24,0,0,1-.25.26h-.89a.24.24,0,0,1-.26-.26v-.71c0-.08-.06-.12-.12,0a4.18,4.18,0,0,1-3.08,1.17c-1.68,0-3.26-.81-3.26-2.89s1.5-3.2,4.07-3.2H376a.09.09,0,0,0,.1-.1v-.73a2,2,0,0,0-2.31-2.17c-1.25,0-2.06.51-2.28,1.34a.23.23,0,0,1-.29.2l-1-.12c-.16,0-.26-.08-.24-.21.26-1.45,1.72-2.44,3.76-2.44C376.16,165.89,377.48,167.26,377.48,169.21Zm-1.4,3.64v-1.52a.09.09,0,0,0-.1-.1h-2.07c-1.72,0-2.89.73-2.89,2s1,1.75,2.17,1.75C374.66,175,376.08,174.23,376.08,172.85Z" style="fill:#263238"></path><path d="M380.35,173.46a8.54,8.54,0,0,1-.28-2.43,9,9,0,0,1,.26-2.41,4.1,4.1,0,0,1,7.72,0,8.73,8.73,0,0,1,.28,2.43,8.54,8.54,0,0,1-.28,2.43,4.07,4.07,0,0,1-7.7,0Zm6.4-.41a9.21,9.21,0,0,0,.16-2,8.39,8.39,0,0,0-.16-2,2.65,2.65,0,0,0-5.1,0,12.52,12.52,0,0,0,0,4,2.65,2.65,0,0,0,5.1,0Z" style="fill:#263238"></path><path d="M180.87,153.41l-20.5-5.54L165,117.48a9.66,9.66,0,0,0-10.33-11.08L111.14,110a9.64,9.64,0,0,0-8.83,10.39l3.2,39.86a9.65,9.65,0,0,0,9.24,8.87l33.5,1.32a9.63,9.63,0,0,0,9.92-8.18l.87-5.69Z" style="fill:#fff;stroke:#263238;stroke-miterlimit:10"></path><rect x="116.46" y="114.9" width="33.95" height="21.38" style="fill:#8c8c8c;stroke:#263238;stroke-linecap:round;stroke-linejoin:round"></rect><rect x="116.46" y="120.08" width="33.95" height="11.03" style="fill:#fff;stroke:#263238;stroke-linecap:round;stroke-linejoin:round"></rect><path d="M124.35,144h.89a.24.24,0,0,1,.25.26v13.32a.24.24,0,0,1-.25.26h-.89a.24.24,0,0,1-.26-.26v-6a.09.09,0,0,0-.1-.1h-6.26a.09.09,0,0,0-.1.1v6a.24.24,0,0,1-.26.26h-.89a.23.23,0,0,1-.25-.26V144.22a.23.23,0,0,1,.25-.26h.89a.24.24,0,0,1,.26.26v5.91a.09.09,0,0,0,.1.1H124a.09.09,0,0,0,.1-.1v-5.91A.24.24,0,0,1,124.35,144Z" style="fill:#263238"></path><path d="M128.83,155.21a8.66,8.66,0,0,1-.27-2.43,9.09,9.09,0,0,1,.25-2.41,4.11,4.11,0,0,1,7.73,0,8.73,8.73,0,0,1,.28,2.43,8.63,8.63,0,0,1-.28,2.43,4.08,4.08,0,0,1-7.71,0Zm6.4-.42a9.05,9.05,0,0,0,.16-2,8.48,8.48,0,0,0-.16-2,2.64,2.64,0,0,0-5.09,0,8.7,8.7,0,0,0-.16,2,8.49,8.49,0,0,0,.16,2,2.64,2.64,0,0,0,5.09,0Z" style="fill:#263238"></path><path d="M139.66,157.54V144.22a.24.24,0,0,1,.26-.26h.89a.24.24,0,0,1,.25.26v13.32a.24.24,0,0,1-.25.26h-.89A.24.24,0,0,1,139.66,157.54Z" style="fill:#263238"></path><path d="M151.44,151v6.58a.24.24,0,0,1-.26.26h-.89a.24.24,0,0,1-.26-.26v-.71c0-.08-.06-.12-.12,0a4.16,4.16,0,0,1-3.08,1.16c-1.68,0-3.26-.81-3.26-2.88s1.5-3.2,4.07-3.2h2.29a.09.09,0,0,0,.1-.1V151a2,2,0,0,0-2.31-2.18c-1.24,0-2.05.52-2.27,1.35a.23.23,0,0,1-.3.19l-1-.11c-.15,0-.25-.08-.23-.22.25-1.44,1.72-2.43,3.75-2.43C150.11,147.64,151.44,149,151.44,151ZM150,154.59v-1.52a.09.09,0,0,0-.1-.1h-2.07c-1.72,0-2.89.73-2.89,2s1,1.76,2.18,1.76C148.61,156.75,150,156,150,154.59Z" style="fill:#263238"></path><path d="M414.29,205.67H387.62A20.33,20.33,0,0,0,367.29,226v7.51L354,233l13.33,8.7v5.63a20.34,20.34,0,0,0,20.33,20.34h26.67a20.34,20.34,0,0,0,20.33-20.34V226A20.33,20.33,0,0,0,414.29,205.67Z" style="fill:#fff;stroke:#263238;stroke-miterlimit:10"></path><path d="M390.45,243.6h.89a.24.24,0,0,1,.25.25v13.32a.24.24,0,0,1-.25.26h-.89a.24.24,0,0,1-.26-.26v-6a.09.09,0,0,0-.1-.1h-6.26a.09.09,0,0,0-.1.1v6a.24.24,0,0,1-.26.26h-.89a.24.24,0,0,1-.26-.26V243.85a.24.24,0,0,1,.26-.25h.89a.24.24,0,0,1,.26.25v5.91a.09.09,0,0,0,.1.1h6.26a.09.09,0,0,0,.1-.1v-5.91A.24.24,0,0,1,390.45,243.6Z" style="fill:#263238"></path><path d="M401.39,254.9a.23.23,0,0,1,.34-.12l.57.32c.14.08.2.2.12.33a3.86,3.86,0,0,1-3.67,2.16,3.65,3.65,0,0,1-3.7-2.47,7.68,7.68,0,0,1-.38-2.73,9.11,9.11,0,0,1,.18-2.29,3.74,3.74,0,0,1,3.82-2.83,3.69,3.69,0,0,1,3.95,3.4,10.37,10.37,0,0,1,.12,2,.23.23,0,0,1-.26.25h-6.32a.09.09,0,0,0-.1.1,6.32,6.32,0,0,0,.12,1.45,2.55,2.55,0,0,0,2.68,1.93A2.71,2.71,0,0,0,401.39,254.9Zm-5.17-4.55a5.58,5.58,0,0,0-.16,1.35.09.09,0,0,0,.1.1h5.08a.09.09,0,0,0,.09-.1,10.31,10.31,0,0,0-.11-1.27,2.47,2.47,0,0,0-2.55-1.93A2.34,2.34,0,0,0,396.22,250.35Z" style="fill:#263238"></path><path d="M405.52,257.17V243.85a.24.24,0,0,1,.26-.25h.89a.23.23,0,0,1,.25.25v13.32a.23.23,0,0,1-.25.26h-.89A.24.24,0,0,1,405.52,257.17Z" style="fill:#263238"></path><path d="M410.11,257.17V243.85a.24.24,0,0,1,.25-.25h.89a.24.24,0,0,1,.26.25v13.32a.24.24,0,0,1-.26.26h-.89A.24.24,0,0,1,410.11,257.17Z" style="fill:#263238"></path><path d="M414.65,254.84a8.54,8.54,0,0,1-.28-2.43,9,9,0,0,1,.26-2.41,4.11,4.11,0,0,1,7.73,0,8.76,8.76,0,0,1,.27,2.43,8.57,8.57,0,0,1-.27,2.43,4.08,4.08,0,0,1-7.71,0Zm6.4-.41a9.21,9.21,0,0,0,.16-2,8.53,8.53,0,0,0-.16-2,2.64,2.64,0,0,0-5.09,0,8.75,8.75,0,0,0-.16,2,8.64,8.64,0,0,0,.16,2,2.64,2.64,0,0,0,5.09,0Z" style="fill:#263238"></path><rect x="384.14" y="214.54" width="33.95" height="21.38" style="fill:#fff;stroke:#263238;stroke-linecap:round;stroke-linejoin:round"></rect><rect x="384.32" y="214.54" width="33.95" height="2.07" style="fill:#263238"></rect><rect x="384.32" y="217.78" width="33.95" height="2.07" style="fill:#263238"></rect><rect x="384.32" y="221.01" width="33.95" height="2.07" style="fill:#263238"></rect><rect x="384.32" y="224.25" width="33.95" height="2.07" style="fill:#263238"></rect><rect x="384.32" y="227.49" width="33.95" height="2.07" style="fill:#263238"></rect><rect x="384.32" y="230.73" width="33.95" height="2.07" style="fill:#263238"></rect><rect x="384.32" y="233.97" width="33.95" height="2.07" style="fill:#263238"></rect><rect x="384.14" y="214.54" width="16.46" height="11.39" style="fill:#263238"></rect><polygon points="384.78 215.5 384.93 215.82 385.25 215.87 385.02 216.12 385.07 216.47 384.78 216.31 384.5 216.47 384.55 216.12 384.32 215.87 384.64 215.82 384.78 215.5" style="fill:#fff"></polygon><polygon points="384.78 217.61 384.93 217.93 385.25 217.98 385.02 218.23 385.07 218.58 384.78 218.41 384.5 218.58 384.55 218.23 384.32 217.98 384.64 217.93 384.78 217.61" style="fill:#fff"></polygon><polygon points="384.78 219.71 384.93 220.03 385.25 220.08 385.02 220.33 385.07 220.68 384.78 220.51 384.5 220.68 384.55 220.33 384.32 220.08 384.64 220.03 384.78 219.71" style="fill:#fff"></polygon><polygon points="384.78 221.81 384.93 222.13 385.25 222.19 385.02 222.43 385.07 222.78 384.78 222.62 384.5 222.78 384.55 222.43 384.32 222.19 384.64 222.13 384.78 221.81" style="fill:#fff"></polygon><polygon points="384.78 223.92 384.93 224.24 385.25 224.29 385.02 224.54 385.07 224.89 384.78 224.72 384.5 224.89 384.55 224.54 384.32 224.29 384.64 224.24 384.78 223.92" style="fill:#fff"></polygon><polygon points="386.29 216.73 386.43 217.05 386.75 217.1 386.52 217.35 386.57 217.7 386.29 217.54 386 217.7 386.05 217.35 385.82 217.1 386.14 217.05 386.29 216.73" style="fill:#fff"></polygon><polygon points="386.29 218.84 386.43 219.16 386.75 219.21 386.52 219.46 386.57 219.81 386.29 219.64 386 219.81 386.05 219.46 385.82 219.21 386.14 219.16 386.29 218.84" style="fill:#fff"></polygon><polygon points="386.29 220.94 386.43 221.26 386.75 221.31 386.52 221.56 386.57 221.91 386.29 221.75 386 221.91 386.05 221.56 385.82 221.31 386.14 221.26 386.29 220.94" style="fill:#fff"></polygon><polygon points="386.29 223.04 386.43 223.36 386.75 223.41 386.52 223.66 386.57 224.01 386.29 223.85 386 224.01 386.05 223.66 385.82 223.41 386.14 223.36 386.29 223.04" style="fill:#fff"></polygon><polygon points="387.79 215.5 387.94 215.82 388.26 215.87 388.02 216.12 388.08 216.47 387.79 216.31 387.5 216.47 387.56 216.12 387.32 215.87 387.65 215.82 387.79 215.5" style="fill:#fff"></polygon><polygon points="387.79 217.61 387.94 217.93 388.26 217.98 388.02 218.23 388.08 218.58 387.79 218.41 387.5 218.58 387.56 218.23 387.32 217.98 387.65 217.93 387.79 217.61" style="fill:#fff"></polygon><polygon points="387.79 219.71 387.94 220.03 388.26 220.08 388.02 220.33 388.08 220.68 387.79 220.51 387.5 220.68 387.56 220.33 387.32 220.08 387.65 220.03 387.79 219.71" style="fill:#fff"></polygon><polygon points="387.79 221.81 387.94 222.13 388.26 222.19 388.02 222.43 388.08 222.78 387.79 222.62 387.5 222.78 387.56 222.43 387.32 222.19 387.65 222.13 387.79 221.81" style="fill:#fff"></polygon><polygon points="387.79 223.92 387.94 224.24 388.26 224.29 388.02 224.54 388.08 224.89 387.79 224.72 387.5 224.89 387.56 224.54 387.32 224.29 387.65 224.24 387.79 223.92" style="fill:#fff"></polygon><polygon points="389.3 216.73 389.44 217.05 389.76 217.1 389.53 217.35 389.58 217.7 389.3 217.54 389.01 217.7 389.06 217.35 388.83 217.1 389.15 217.05 389.3 216.73" style="fill:#fff"></polygon><polygon points="389.3 218.84 389.44 219.16 389.76 219.21 389.53 219.46 389.58 219.81 389.3 219.64 389.01 219.81 389.06 219.46 388.83 219.21 389.15 219.16 389.3 218.84" style="fill:#fff"></polygon><polygon points="389.3 220.94 389.44 221.26 389.76 221.31 389.53 221.56 389.58 221.91 389.3 221.75 389.01 221.91 389.06 221.56 388.83 221.31 389.15 221.26 389.3 220.94" style="fill:#fff"></polygon><polygon points="389.3 223.04 389.44 223.36 389.76 223.41 389.53 223.66 389.58 224.01 389.3 223.85 389.01 224.01 389.06 223.66 388.83 223.41 389.15 223.36 389.3 223.04" style="fill:#fff"></polygon><polygon points="390.8 215.5 390.94 215.82 391.26 215.87 391.03 216.12 391.09 216.47 390.8 216.31 390.51 216.47 390.56 216.12 390.33 215.87 390.65 215.82 390.8 215.5" style="fill:#fff"></polygon><polygon points="390.8 217.61 390.94 217.93 391.26 217.98 391.03 218.23 391.09 218.58 390.8 218.41 390.51 218.58 390.56 218.23 390.33 217.98 390.65 217.93 390.8 217.61" style="fill:#fff"></polygon><polygon points="390.8 219.71 390.94 220.03 391.26 220.08 391.03 220.33 391.09 220.68 390.8 220.51 390.51 220.68 390.56 220.33 390.33 220.08 390.65 220.03 390.8 219.71" style="fill:#fff"></polygon><polygon points="390.8 221.81 390.94 222.13 391.26 222.19 391.03 222.43 391.09 222.78 390.8 222.62 390.51 222.78 390.56 222.43 390.33 222.19 390.65 222.13 390.8 221.81" style="fill:#fff"></polygon><polygon points="390.8 223.92 390.94 224.24 391.26 224.29 391.03 224.54 391.09 224.89 390.8 224.72 390.51 224.89 390.56 224.54 390.33 224.29 390.65 224.24 390.8 223.92" style="fill:#fff"></polygon><polygon points="392.3 216.73 392.45 217.05 392.77 217.1 392.54 217.35 392.59 217.7 392.3 217.54 392.01 217.7 392.07 217.35 391.84 217.1 392.16 217.05 392.3 216.73" style="fill:#fff"></polygon><polygon points="392.3 218.84 392.45 219.16 392.77 219.21 392.54 219.46 392.59 219.81 392.3 219.64 392.01 219.81 392.07 219.46 391.84 219.21 392.16 219.16 392.3 218.84" style="fill:#fff"></polygon><polygon points="392.3 220.94 392.45 221.26 392.77 221.31 392.54 221.56 392.59 221.91 392.3 221.75 392.01 221.91 392.07 221.56 391.84 221.31 392.16 221.26 392.3 220.94" style="fill:#fff"></polygon><polygon points="392.3 223.04 392.45 223.36 392.77 223.41 392.54 223.66 392.59 224.01 392.3 223.85 392.01 224.01 392.07 223.66 391.84 223.41 392.16 223.36 392.3 223.04" style="fill:#fff"></polygon><polygon points="393.81 215.5 393.95 215.82 394.27 215.87 394.04 216.12 394.09 216.47 393.81 216.31 393.52 216.47 393.57 216.12 393.34 215.87 393.66 215.82 393.81 215.5" style="fill:#fff"></polygon><polygon points="393.81 217.61 393.95 217.93 394.27 217.98 394.04 218.23 394.09 218.58 393.81 218.41 393.52 218.58 393.57 218.23 393.34 217.98 393.66 217.93 393.81 217.61" style="fill:#fff"></polygon><polygon points="393.81 219.71 393.95 220.03 394.27 220.08 394.04 220.33 394.09 220.68 393.81 220.51 393.52 220.68 393.57 220.33 393.34 220.08 393.66 220.03 393.81 219.71" style="fill:#fff"></polygon><polygon points="393.81 221.81 393.95 222.13 394.27 222.19 394.04 222.43 394.09 222.78 393.81 222.62 393.52 222.78 393.57 222.43 393.34 222.19 393.66 222.13 393.81 221.81" style="fill:#fff"></polygon><polygon points="393.81 223.92 393.95 224.24 394.27 224.29 394.04 224.54 394.09 224.89 393.81 224.72 393.52 224.89 393.57 224.54 393.34 224.29 393.66 224.24 393.81 223.92" style="fill:#fff"></polygon><polygon points="395.31 216.73 395.45 217.05 395.78 217.1 395.54 217.35 395.6 217.7 395.31 217.54 395.02 217.7 395.08 217.35 394.84 217.1 395.17 217.05 395.31 216.73" style="fill:#fff"></polygon><polygon points="395.31 218.84 395.45 219.16 395.78 219.21 395.54 219.46 395.6 219.81 395.31 219.64 395.02 219.81 395.08 219.46 394.84 219.21 395.17 219.16 395.31 218.84" style="fill:#fff"></polygon><polygon points="395.31 220.94 395.45 221.26 395.78 221.31 395.54 221.56 395.6 221.91 395.31 221.75 395.02 221.91 395.08 221.56 394.84 221.31 395.17 221.26 395.31 220.94" style="fill:#fff"></polygon><polygon points="395.31 223.04 395.45 223.36 395.78 223.41 395.54 223.66 395.6 224.01 395.31 223.85 395.02 224.01 395.08 223.66 394.84 223.41 395.17 223.36 395.31 223.04" style="fill:#fff"></polygon><polygon points="396.81 215.5 396.96 215.82 397.28 215.87 397.05 216.12 397.1 216.47 396.81 216.31 396.53 216.47 396.58 216.12 396.35 215.87 396.67 215.82 396.81 215.5" style="fill:#fff"></polygon><polygon points="396.81 217.61 396.96 217.93 397.28 217.98 397.05 218.23 397.1 218.58 396.81 218.41 396.53 218.58 396.58 218.23 396.35 217.98 396.67 217.93 396.81 217.61" style="fill:#fff"></polygon><polygon points="396.81 219.71 396.96 220.03 397.28 220.08 397.05 220.33 397.1 220.68 396.81 220.51 396.53 220.68 396.58 220.33 396.35 220.08 396.67 220.03 396.81 219.71" style="fill:#fff"></polygon><polygon points="396.81 221.81 396.96 222.13 397.28 222.19 397.05 222.43 397.1 222.78 396.81 222.62 396.53 222.78 396.58 222.43 396.35 222.19 396.67 222.13 396.81 221.81" style="fill:#fff"></polygon><polygon points="396.81 223.92 396.96 224.24 397.28 224.29 397.05 224.54 397.1 224.89 396.81 224.72 396.53 224.89 396.58 224.54 396.35 224.29 396.67 224.24 396.81 223.92" style="fill:#fff"></polygon><polygon points="398.32 216.73 398.46 217.05 398.78 217.1 398.55 217.35 398.61 217.7 398.32 217.54 398.03 217.7 398.08 217.35 397.85 217.1 398.17 217.05 398.32 216.73" style="fill:#fff"></polygon><polygon points="398.32 218.84 398.46 219.16 398.78 219.21 398.55 219.46 398.61 219.81 398.32 219.64 398.03 219.81 398.08 219.46 397.85 219.21 398.17 219.16 398.32 218.84" style="fill:#fff"></polygon><polygon points="398.32 220.94 398.46 221.26 398.78 221.31 398.55 221.56 398.61 221.91 398.32 221.75 398.03 221.91 398.08 221.56 397.85 221.31 398.17 221.26 398.32 220.94" style="fill:#fff"></polygon><polygon points="398.32 223.04 398.46 223.36 398.78 223.41 398.55 223.66 398.61 224.01 398.32 223.85 398.03 224.01 398.08 223.66 397.85 223.41 398.17 223.36 398.32 223.04" style="fill:#fff"></polygon><polygon points="399.82 215.5 399.97 215.82 400.29 215.87 400.06 216.12 400.11 216.47 399.82 216.31 399.53 216.47 399.59 216.12 399.36 215.87 399.68 215.82 399.82 215.5" style="fill:#fff"></polygon><polygon points="399.82 217.61 399.97 217.93 400.29 217.98 400.06 218.23 400.11 218.58 399.82 218.41 399.53 218.58 399.59 218.23 399.36 217.98 399.68 217.93 399.82 217.61" style="fill:#fff"></polygon><polygon points="399.82 219.71 399.97 220.03 400.29 220.08 400.06 220.33 400.11 220.68 399.82 220.51 399.53 220.68 399.59 220.33 399.36 220.08 399.68 220.03 399.82 219.71" style="fill:#fff"></polygon><polygon points="399.82 221.81 399.97 222.13 400.29 222.19 400.06 222.43 400.11 222.78 399.82 222.62 399.53 222.78 399.59 222.43 399.36 222.19 399.68 222.13 399.82 221.81" style="fill:#fff"></polygon><polygon points="399.82 223.92 399.97 224.24 400.29 224.29 400.06 224.54 400.11 224.89 399.82 224.72 399.53 224.89 399.59 224.54 399.36 224.29 399.68 224.24 399.82 223.92" style="fill:#fff"></polygon><path d="M162.9,236.59H145.37A34.29,34.29,0,1,0,147,246.92c0-.26,0-.51,0-.77Z" style="fill:#fff;stroke:#263238;stroke-miterlimit:10"></path><path d="M96.09,258.35A24.74,24.74,0,0,1,94,261.44a9.94,9.94,0,0,0-.85-1.07,29.61,29.61,0,0,0,4.76-9.62l1.64.49c-.08.2-.25.24-.47.22a43.11,43.11,0,0,1-1.88,4.68l.57.16c0,.12-.13.22-.39.23V269.1H96.09Zm13.53.48c.16-.73.36-1.84.53-2.91h-3.93v11.54c0,1.42-.51,1.68-3.28,1.68a5.31,5.31,0,0,0-.49-1.36c.49,0,1,0,1.34,0h.79c.26,0,.34-.08.34-.34V255.92h-3.18a17.44,17.44,0,0,1-2,3.74,5.36,5.36,0,0,0-1-.81A21.39,21.39,0,0,0,102,250.8l1.64.44c0,.14-.17.22-.43.2a30.77,30.77,0,0,1-1,3.24h8.73l.7,0a34.49,34.49,0,0,1-.89,4.34Zm-6.32.65c-.06.14-.2.22-.44.22a19.4,19.4,0,0,1-3,6.6,6.3,6.3,0,0,0-1.05-.68A17.94,17.94,0,0,0,101.7,259Zm7.17,6.66a27.38,27.38,0,0,0-2.71-6.82l1.17-.41a26.42,26.42,0,0,1,2.81,6.75Z" style="fill:#263238"></path><path d="M119.92,254.88l.75.19-.12.28a25.84,25.84,0,0,1-1.9,8.5A13.92,13.92,0,0,1,121,266l-.81,1.09a13.41,13.41,0,0,0-2.11-2.06,10.69,10.69,0,0,1-3.91,4.13,6.16,6.16,0,0,0-.83-1.09,9.34,9.34,0,0,0,3.71-3.85,26.14,26.14,0,0,0-2.25-1.52l-.24.87-1.13-.59c.5-1.74,1.11-4.25,1.68-6.8h-2v-1.25h2.25c.32-1.48.59-2.9.83-4.17l1.62.2c0,.14-.14.22-.39.24-.22,1.13-.5,2.41-.79,3.73h3Zm-3.56,1.3c-.42,1.84-.87,3.69-1.29,5.31.83.46,1.68,1,2.51,1.57a23.24,23.24,0,0,0,1.64-6.88Zm15.08,3.4v1.28h-4.77v6.54c0,1.52-.59,1.76-4.09,1.72a6.71,6.71,0,0,0-.49-1.32l2.37,0c.67,0,.87,0,.87-.42v-6.56h-4.84v-1.28h4.84v-3.36l.65,0a20,20,0,0,0,2.93-3.22H121.3v-1.25h8.61l.26-.08,1.05.66a.64.64,0,0,1-.32.19,24.82,24.82,0,0,1-4.23,4.57v2.45Z" style="fill:#263238"></path><rect x="95.8" y="223.2" width="33.95" height="21.38" style="fill:#263238;stroke:#263238;stroke-linecap:round;stroke-linejoin:round"></rect><polygon points="99.81 224.46 100.64 226.13 102.47 226.39 101.14 227.69 101.46 229.51 99.81 228.65 98.17 229.51 98.49 227.69 97.16 226.39 98.99 226.13 99.81 224.46" style="fill:#fff"></polygon><polygon points="105.14 223.81 105.57 224.67 106.51 224.81 105.83 225.47 105.99 226.41 105.14 225.97 104.3 226.41 104.46 225.47 103.77 224.81 104.72 224.67 105.14 223.81" style="fill:#fff"></polygon><polygon points="106.29 228.15 106.71 229.01 107.66 229.14 106.97 229.81 107.13 230.75 106.29 230.31 105.44 230.75 105.6 229.81 104.92 229.14 105.86 229.01 106.29 228.15" style="fill:#fff"></polygon><polygon points="103.47 230.99 103.89 231.84 104.84 231.98 104.16 232.65 104.32 233.59 103.47 233.14 102.63 233.59 102.79 232.65 102.1 231.98 103.05 231.84 103.47 230.99" style="fill:#fff"></polygon><polygon points="99.56 232.29 99.98 233.14 100.93 233.28 100.25 233.95 100.41 234.89 99.56 234.45 98.72 234.89 98.88 233.95 98.19 233.28 99.14 233.14 99.56 232.29" style="fill:#fff"></polygon></g><g id="freepik--Character--inject-35"><path d="M303.48,155.48A41.48,41.48,0,0,0,262,114H247.56a41.48,41.48,0,0,0-41.48,41.48" style="fill:none;stroke:#263238;stroke-linecap:round;stroke-linejoin:round;stroke-width:3px"></path><line x1="303.48" y1="186.2" x2="303.48" y2="155.48" style="fill:none;stroke:#263238;stroke-linecap:round;stroke-linejoin:round;stroke-width:6px"></line><line x1="206.08" y1="155.48" x2="206.08" y2="186.2" style="fill:none;stroke:#263238;stroke-linecap:round;stroke-linejoin:round;stroke-width:6px"></line><path d="M235.87,232.29s2.59,18.09,2.07,22.74-1.55,9.3-14.47,4.13-36.17,4.14-51.16,22.22-43.4,78.55-43.4,85.78,5.68,17,16,18.6,34.62-27.9,34.62-27.9,10.33,58.39,10.33,63S185.23,456,185.23,456H331.47l-5.69-37.72,10.34-83.2s42.89,58.39,52.19,61,23.77-2.07,27.39-12.92-2.07-22.22-9.31-30.49-52.7-81.13-61-87.84-31.52-7.24-39.79-5.17-22.22,5.17-25.84,3.1-3.61-21.7,0-30.49C279.79,232.29,248.27,240.56,235.87,232.29Z" style="fill:#04ABF2;stroke:#263238;stroke-linecap:round;stroke-linejoin:round"></path><path d="M215.67,389.63a52.36,52.36,0,0,0,5.09,1.67" style="fill:none;stroke:#263238;stroke-linecap:round;stroke-linejoin:round"></path><path d="M189,356.48s2.3,20.08,21.22,30.6" style="fill:none;stroke:#263238;stroke-linecap:round;stroke-linejoin:round"></path><line x1="247.85" y1="297.67" x2="257.91" y2="312.37" style="fill:none;stroke:#263238;stroke-linecap:round;stroke-linejoin:round"></line><line x1="347.33" y1="311.72" x2="349.99" y2="306.18" style="fill:none;stroke:#263238;stroke-linecap:round;stroke-linejoin:round"></line><polyline points="343.02 304.63 336.12 335.12 344.6 317.43" style="fill:none;stroke:#263238;stroke-linecap:round;stroke-linejoin:round"></polyline><path d="M374,359.57s10.92-7,21.67-7" style="fill:none;stroke:#263238;stroke-linecap:round;stroke-linejoin:round"></path><path d="M351.78,380.54a149,149,0,0,0,19.79-12.82,44.28,44.28,0,0,1,31.5-8.92c10.31,1.11,15.89,13.93,16.16,26.76s-6.69,20.62-19.23,22.57-27.32-.83-36.51-3.06a121.13,121.13,0,0,0-14.78-2.79S336.73,383.88,351.78,380.54Z" style="fill:#fff;stroke:#263238;stroke-linecap:round;stroke-linejoin:round"></path><path d="M419.23,385.56c-.27-12.83-5.85-25.65-16.16-26.76a44.28,44.28,0,0,0-31.5,8.92l-1.4,1.07c12,.41,36.26,5.31,32.46,38.82C413.51,405,419.49,397.45,419.23,385.56Z" style="fill:#04ABF2;stroke:#263238;stroke-linecap:round;stroke-linejoin:round"></path><path d="M235.87,232.29s2.59,18.09,2.07,22.74c-.39,3.49-1.07,7-6.83,6.32,8.24,13.47,32.17,45.09,54.5,2-2.6.16-4.7,0-5.82-.62-3.61-2.07-3.61-21.7,0-30.49C279.79,232.29,248.27,240.56,235.87,232.29Z" style="fill:#fff;stroke:#263238;stroke-linecap:round;stroke-linejoin:round"></path><path d="M235.87,232.29s.67,4.7,1.26,9.92a45.79,45.79,0,0,0,19.4,5.28,37.46,37.46,0,0,0,21.11-6.11,37.39,37.39,0,0,1,2.15-9.09S248.27,240.56,235.87,232.29Z" style="fill:#263238;stroke:#263238;stroke-linecap:round;stroke-linejoin:round"></path><rect x="198.28" y="169.75" width="15.53" height="36.94" rx="6.34" style="fill:#263238;stroke:#263238;stroke-linecap:round;stroke-linejoin:round"></rect><path d="M207.63,169.78c-.23,0-.47,0-.71,0h-1.76c-.24,0-.47,0-.71,0v36.88c.24,0,.47,0,.71,0h1.76c.24,0,.48,0,.71,0Z" style="fill:#fff;stroke:#263238;stroke-linecap:round;stroke-linejoin:round"></path><rect x="296" y="169.75" width="15.53" height="36.94" rx="6.34" style="fill:#263238;stroke:#263238;stroke-linecap:round;stroke-linejoin:round"></rect><path d="M305.36,169.78c-.23,0-.47,0-.71,0h-1.76c-.24,0-.48,0-.71,0v36.88c.23,0,.47,0,.71,0h1.76c.24,0,.48,0,.71,0Z" style="fill:#fff;stroke:#263238;stroke-linecap:round;stroke-linejoin:round"></path><path d="M181.63,198.92a7.29,7.29,0,0,0-5.79,3.86c-2.32,3.86-9.65,18.14-8.88,22.39s32.81,34.35,32.81,36.28-25.47,36.67-42.46,52.11-30.49,32.8-32.81,46.7,5.79,25.47,14.29,27.79,18.91-2.7,30.87-17.76,44.78-80.67,49.8-103c0,0,1.15-10-3.48-15.83s-16.21-19.3-16.21-19.3,2.32-26.63.39-28.56-3.86,2.32-3.86,2.32-1.79-8.93-4.25-8.5c-2.69.48-3.47,3.86-3.47,3.86S186.65,193.51,181.63,198.92Z" style="fill:#fff;stroke:#263238;stroke-linecap:round;stroke-linejoin:round"></path><path d="M196.3,205.87s-5.54,22.17-5,25.91" style="fill:none;stroke:#263238;stroke-linecap:round;stroke-linejoin:round"></path><path d="M188.58,201.23s-5.87,21.56-6.62,24.56a7.39,7.39,0,0,0,.94,5.81" style="fill:none;stroke:#263238;stroke-linecap:round;stroke-linejoin:round"></path><path d="M181.63,198.92s-8.29,23.12-8.29,25.56,1.88,5.43,1.88,5.43" style="fill:none;stroke:#263238;stroke-linecap:round;stroke-linejoin:round"></path><path d="M174.25,295.53a203.44,203.44,0,0,1-16.94,18c-17,15.43-30.49,32.8-32.81,46.7s5.79,25.47,14.29,27.79,18.91-2.7,30.87-17.76c6.89-8.66,20.67-34.06,32.09-58.33C184.35,307.31,177.17,300.11,174.25,295.53Z" style="fill:#04ABF2;stroke:#263238;stroke-linecap:round;stroke-linejoin:round"></path><path d="M213.47,150.61s-.67,53.73,1.35,63.81,20.15,27.2,41,27.87,37.28-18.47,39.29-28.55,0-50.37-.33-66.49-23.51-30.56-47-26.87S212.13,137.84,213.47,150.61Z" style="fill:#fff;stroke:#263238;stroke-linecap:round;stroke-linejoin:round"></path><path d="M264.52,172.44s1.34,9.4,2.69,11.41,3.69,4.71-1,6.72-8.4-.34-8.4-2.69" style="fill:none;stroke:#263238;stroke-linecap:round;stroke-linejoin:round"></path><path d="M269.56,205.68S251.42,208,243.36,200c0,0,2,12.43,8.06,14.45S269.56,205.68,269.56,205.68Z" style="fill:#fff;stroke:#263238;stroke-linecap:round;stroke-linejoin:round"></path><line x1="246.05" y1="172.77" x2="247.73" y2="178.14" style="fill:none;stroke:#263238;stroke-linecap:round;stroke-linejoin:round"></line><path d="M238.66,177.81s4.7,3,13.43.33" style="fill:none;stroke:#263238;stroke-linecap:round;stroke-linejoin:round;stroke-width:2px"></path><line x1="278.96" y1="172.77" x2="280.64" y2="178.14" style="fill:none;stroke:#263238;stroke-linecap:round;stroke-linejoin:round"></line><path d="M271.57,177.81s4.7,3,13.44.33" style="fill:none;stroke:#263238;stroke-linecap:round;stroke-linejoin:round;stroke-width:2px"></path><path d="M236.31,163.37a17.62,17.62,0,0,1,14.1-7.05" style="fill:none;stroke:#263238;stroke-linecap:round;stroke-linejoin:round;stroke-width:2px"></path><path d="M268.55,155.64s9.74-2.68,16.46,5" style="fill:none;stroke:#263238;stroke-linecap:round;stroke-linejoin:round;stroke-width:2px"></path><path d="M256,170h0a9.28,9.28,0,0,1-.12,9.58l-.19.3a15.63,15.63,0,0,1-13.27,7.37h-2.1a12.19,12.19,0,0,1-10.54-6.07h0a10.12,10.12,0,0,1-.58-9h0a10.1,10.1,0,0,1,8.68-6.17l9.56-.6A9.25,9.25,0,0,1,256,170Z" style="fill:none;stroke:#263238;stroke-linecap:round;stroke-linejoin:round"></path><path d="M267,170h0a9.28,9.28,0,0,0,.12,9.58l.19.3a15.63,15.63,0,0,0,13.27,7.37h2.1a12.19,12.19,0,0,0,10.54-6.07h0a10.09,10.09,0,0,0,.58-9h0a10.1,10.1,0,0,0-8.68-6.17l-9.55-.6A9.27,9.27,0,0,0,267,170Z" style="fill:none;stroke:#263238;stroke-linecap:round;stroke-linejoin:round"></path><path d="M257.13,171.76s3-2.35,8.73,0" style="fill:none;stroke:#263238;stroke-linecap:round;stroke-linejoin:round"></path><line x1="253.1" y1="166.73" x2="269.56" y2="166.73" style="fill:none;stroke:#263238;stroke-linecap:round;stroke-linejoin:round"></line><line x1="229.18" y1="172.17" x2="213.47" y2="172.17" style="fill:none;stroke:#263238;stroke-linecap:round;stroke-linejoin:round"></line><path d="M273.59,136.5s8.7,27.94,21.91,35.16c-.29-9.58-.63-18.58-.75-24.41-.34-16.12-23.51-30.56-47-26.87s-35.6,17.46-34.26,30.23c0,0-.11,8.77-.1,19.9C224.73,165.62,254.59,152,273.59,136.5Z" style="fill:#263238"></path><g style="clip-path:url(#freepik--clip-path--inject-35)"><path d="M211.14,163.17S255.19,144.7,279,121.25" style="fill:none;stroke:#737373;stroke-linecap:round;stroke-linejoin:round"></path><path d="M207.58,148.25s46.19-10.66,72.84-38.73" style="fill:none;stroke:#737373;stroke-linecap:round;stroke-linejoin:round"></path><path d="M282.19,124.44s.71,18.12,19.9,34.82" style="fill:none;stroke:#737373;stroke-linecap:round;stroke-linejoin:round"></path></g><path d="M277.19,237.19s0,12.18-9.13,31.59-9.52,38.82-3.43,53.28,22.46,20.18,40,13.71,19.79-35.4,17.89-52.91-19-38.06-22.84-48.34-6.47-15.6-6.47-15.6-9.9,13.7-16,16.74Z" style="fill:#263238"></path><g style="clip-path:url(#freepik--clip-path-2--inject-35)"><path d="M283.61,223.57a95.61,95.61,0,0,1-6.39,49c-10.66,25.58-2.49,52.94,9.95,58.62s24.51,3.56,30.55-4.26" style="fill:none;stroke:#737373;stroke-linecap:round;stroke-linejoin:round"></path><path d="M288.23,217.89s12.08,28.42,7.11,49.74S292.5,316,307.42,321.28,330.87,316,330.87,316" style="fill:none;stroke:#737373;stroke-linecap:round;stroke-linejoin:round"></path><path d="M302.8,236.36s10.3,39.08,10.3,59.33,12.44,17.06,15.64,7.11" style="fill:none;stroke:#737373;stroke-linecap:round;stroke-linejoin:round"></path></g><path d="M277.19,237.19s0,12.18-9.13,31.59-9.52,38.82-3.43,53.28,22.46,20.18,40,13.71,19.79-35.4,17.89-52.91-19-38.06-22.84-48.34-6.47-15.6-6.47-15.6-9.9,13.7-16,16.74Z" style="fill:none;stroke:#263238;stroke-linecap:round;stroke-linejoin:round"></path><rect x="252.03" y="343.56" width="75.36" height="100.1" rx="5.19" transform="translate(16.07 -11.34) rotate(2.31)" style="fill:#263238;stroke:#263238;stroke-linecap:round;stroke-linejoin:round"></rect><path d="M357.24,381.19S324,370.85,318.33,369.11,280,391.76,278.7,395.24s3.48,3.49,3.48,3.49-2,3.48,1,5.22a18,18,0,0,0,3,1.63s-1.74,3.92,1.74,5.23,8.28-2.18,8.28-2.18l7.84-5.66s-9.42,11.53-7.41,13.94c2.77,3.3,4.54-.24,4.54-.24L312,403.84l10.88-5.23s8.71,5.23,22.65,5.66,17-5.66,17-5.66" style="fill:#fff;stroke:#263238;stroke-linecap:round;stroke-linejoin:round"></path><path d="M286.25,405.58s12.21-8.38,15.25-11.41,12.89-9.36,15.93-9.36" style="fill:none;stroke:#263238;stroke-linecap:round;stroke-linejoin:round"></path><path d="M304.11,403s6-6.78,8.26-7.79,5.56-2.53,5.56-2.53" style="fill:none;stroke:#263238;stroke-linecap:round;stroke-linejoin:round"></path><path d="M282.18,398.73s17-12,22.82-15.53a82.17,82.17,0,0,1,10.87-5.57" style="fill:none;stroke:#263238;stroke-linecap:round;stroke-linejoin:round"></path></g></svg>