<?xml version="1.0" encoding="UTF-8"?>
<!-- Generator: Adobe Illustrator 25.3.1, SVG Export Plug-In . SVG Version: 6.00 Build 0)  -->
<svg xmlns="http://www.w3.org/2000/svg" xmlns:xlink="http://www.w3.org/1999/xlink" version="1.1" id="Capa_1" x="0px" y="0px" viewBox="0 0 512 512" style="enable-background:new 0 0 512 512;" xml:space="preserve" width="512" height="512">
<g>
	<g>
		<g>
			<g>
				<path style="fill:#91D728;" d="M158.651,310.257c-5.293,0-5.372-4.075-5.529-12.197c-0.073-3.667-0.171-8.688-0.617-15.315      c-0.692-10.277-2.462-20.326-5.409-30.718c-3.952-13.923-8.99-27.827-13.862-41.274l-2.899-8.025      c-7.889-21.912-15.924-53.301-14.82-75.683c0.146-3.494,3.067-6.855,6.508-7.48l21.362-4.018      c7.734-1.467,16.718-3.148,25.44-4.781l16.044-3.007c7.197-1.337,14.374-2.686,21.56-4.058c0.41-0.073,0.787-0.106,1.151-0.106      c1.543,0,2.951,0.592,3.966,1.667c1.081,1.146,1.622,2.735,1.522,4.475c-0.312,6.426-0.146,12.731,0.505,19.256      c0.858,8.705,2.371,17.423,4.501,25.915c3.331,13.316,8.012,26.509,12.54,39.268l1.201,3.385      c5.04,14.152,10.26,29.26,13.835,44.643c2.214,9.532,7.093,33.134,4.562,46.406c-0.312,1.743-1.536,3.563-3.113,4.618      c-1.673,1.115-2.735,1.306-11.007,2.797l-1.656,0.298c-2.976,0.542-6.808,1.245-11.751,2.174      c-39.989,7.515-50.06,9.505-53.371,10.159c-1.871,0.37-1.871,0.37-3.609,0.654l-2.087,0.341      C161.484,310.003,159.939,310.257,158.651,310.257z"/>
				<g style="opacity:0.25;">
					<path style="fill:#000E3F;" d="M179.873,266.441c-1.84-10.084,4.95-19.833,16.258-21.952       c11.253-2.111,22.743,4.198,24.587,14.285c1.872,10.079-6.871,20.189-18.143,22.309       C191.288,283.207,181.75,276.523,179.873,266.441z"/>
					<path style="fill:#000E3F;" d="M145.433,155.215c-1.87-10.083,6.88-20.191,18.148-22.307       c11.29-2.117,20.827,4.561,22.696,14.643c1.843,10.097-4.954,19.827-16.263,21.953       C158.76,171.613,147.276,165.313,145.433,155.215z"/>
					<path style="fill:#000E3F;" d="M153.312,212.582c-5.103-14.256,4.489-28.379,20.958-31.472       c16.402-3.08,33.45,6.05,38.56,20.301c5.109,14.25-4.491,28.38-20.957,31.472C175.478,235.97,158.419,226.828,153.312,212.582z       "/>
					<path style="fill:#000E3F;" d="M222.303,296.427c20.573-3.868,21.803-3.714,23.634-4.936c1.095-0.731,1.992-2.047,2.225-3.27       c2.27-11.963-1.812-33.714-4.556-45.552c-3.504-15.118-8.574-29.799-13.76-44.406c-5.018-14.135-10.153-28.269-13.803-42.835       c-2.166-8.643-3.678-17.371-4.562-26.235c-0.611-6.124-0.852-12.5-0.514-19.583c0.156-2.571-1.686-4.3-4.142-3.839       c-7.187,1.353-14.379,2.706-21.568,4.058c-12.735,2.386-28.777,5.378-41.493,7.773c-7.126,1.341-14.251,2.681-21.376,4.022       c-2.457,0.444-4.67,2.947-4.78,5.534c-1.082,22.021,6.8,52.938,14.693,74.859c5.89,16.358,12.06,32.708,16.815,49.445       c2.901,10.209,4.774,20.545,5.484,31.137c1.782,26.575-1.984,26.726,9.219,24.905       C172.279,306.109,156.01,308.886,222.303,296.427z M181.846,296.319c-0.857-9.577-9.531-15.577-19.125-14.332       c-4.955-46.488-31.424-88.931-36.381-135.421c9.54-2.357,16.282-11.258,17.581-21.239c13.438-2.528,26.875-5.057,40.313-7.585       c0.862,9.845,10,15.906,19.895,14.224c4.966,46.465,31.411,88.887,36.377,135.35c-9.935,2.028-17.025,11.164-18.363,21.421       C208.71,291.264,195.279,293.791,181.846,296.319z"/>
				</g>
				<path style="opacity:0.25;fill:#000E3F;" d="M163.826,307.492c-11.217,1.84-7.442,1.67-9.229-24.888      c-0.714-10.599-2.584-20.925-5.482-31.149c-4.753-16.728-10.932-33.08-16.806-49.436c-7.896-21.928-15.786-52.84-14.701-74.87      c0.11-2.582,2.329-5.074,4.788-5.519l3.102-0.584c2.184,2.98,2.995,6.904,4.034,10.894c2.054,7.947,4.248,15.868,6.592,23.724      c10.758,36.181,21.842,69.396,64.452,116.773c9.266,10.325,20.215,18.276,33.49,21.821c-2.982,0.543-6.818,1.247-11.766,2.178      C156.008,308.892,172.277,306.101,163.826,307.492z"/>
			</g>
			<g>
				<path style="fill:#000E3F;" d="M171.498,216.23c-0.451-0.261-2.823-2.41-2.905-2.645c-5.32,0.994-4.91,1.597-6.855-4.239      c-1.213-3.468,4.334-0.698,4.202-4.07c-0.047-4.893,2.702-5.879,7.054-6.673c2.716-0.514,2.803-0.079,3.752,3.601      c0.385,1.548,1.543,3.206-0.468,3.578c-2.098,0.382-3.677,0.651-2.952,2.725c0.35,0.996,1.501,2.04,2.527,1.856      c4.167-0.782,4.896-7.138,7.067-10.47c3.432-5.111,10.257-5.552,14.697,0.908c0.262,0.307,0.394,0.07,0.734,0.015      c4.309-0.801,3.921-2.204,5.286,1.697c-0.079-0.226,1.446,3.666,0.798,4.202c-3.862,0.89-4.708,0.464-4.481,1.492      c0.586,2.421-1.076,4.656-2.355,5.648c-1.274,0.995-2.556,1.186-4.319,1.512c-1.377,0.257-1.679-0.658-3.123-4.782      c-1.427-4.083,3.599-1.775,2.531-4.822c-0.345-0.988-1.813-2.044-2.984-1.822c-2.834,0.529-3.817,5.616-4.84,8.641      C183.564,216.435,177.537,220.513,171.498,216.23z"/>
				<path style="fill:#000E3F;" d="M192.945,121.836c-0.132-0.109-0.702-0.948-0.702-1.046c-1.948,0.357-1.906,0.618-1.861-1.69      c0.01-1.363,1.587-0.264,1.961-1.579c0.61-1.934,1.692-2.297,3.294-2.591c0.996-0.186,0.969-0.011,0.826,1.433      c-0.066,0.608,0.123,1.261-0.613,1.402c-0.772,0.14-1.355,0.239-1.357,1.056c-0.001,0.394,0.271,0.801,0.65,0.739      c1.526-0.297,2.561-2.769,3.746-4.079c1.848-1.989,4.245-2.132,4.955,0.423c0.049,0.119,0.129,0.032,0.251,0.011      c1.589-0.3,1.627-0.848,1.616,0.689c-0.001-0.091,0.053,1.434-0.23,1.647c-1.44,0.325-1.691,0.16-1.729,0.566      c-0.076,0.951-0.909,1.809-1.463,2.196c-0.554,0.383-1.026,0.449-1.671,0.571c-0.503,0.093-0.52-0.26-0.543-1.877      c-0.016-1.602,1.46-0.685,1.451-1.877c0.006-0.401-0.383-0.807-0.808-0.728c-1.048,0.197-2.017,2.181-2.712,3.361      C197.08,122.011,194.538,123.516,192.945,121.836z"/>
				<path style="fill:#000E3F;" d="M127.118,135.327c-0.775,0.152-1.476-0.03-2.116-0.706c-0.125-0.11-0.701-0.948-0.702-1.046      c-1.956,0.358-1.903,0.618-1.861-1.689c0.01-1.363,1.584-0.264,1.961-1.579c0.604-1.933,1.69-2.296,3.294-2.591      c1.005-0.187,0.971-0.012,0.826,1.433c-0.068,0.608,0.12,1.262-0.613,1.402c-0.777,0.141-1.351,0.238-1.358,1.056      c-0.002,0.394,0.271,0.801,0.65,0.739c1.524-0.296,2.563-2.77,3.746-4.079c1.844-1.989,4.246-2.132,4.955,0.423      c0.049,0.119,0.128,0.032,0.251,0.011c1.588-0.3,1.631-0.849,1.617,0.689c-0.005-0.091,0.051,1.435-0.23,1.647      c-1.446,0.326-1.693,0.161-1.729,0.566c-0.08,0.951-0.909,1.808-1.463,2.196c-0.557,0.384-1.018,0.448-1.671,0.571      c-0.502,0.093-0.519-0.26-0.543-1.877c-0.014-1.602,1.458-0.685,1.451-1.877c0-0.4-0.378-0.808-0.808-0.728      c-1.052,0.197-2.015,2.18-2.712,3.361C129.411,134.335,128.108,135.149,127.118,135.327z"/>
				<path style="fill:#000E3F;" d="M230.877,286.512c-0.121-0.105-0.668-0.96-0.666-1.053c-1.966,0.371-1.885,0.604-1.849-1.692      c-0.007-1.359,1.589-0.261,1.938-1.575c0.548-1.918,1.6-2.271,3.208-2.575c0.998-0.185,0.99-0.014,0.899,1.419      c-0.043,0.607,0.161,1.27-0.582,1.399c-0.777,0.146-1.351,0.236-1.35,1.052c0.001,0.39,0.269,0.813,0.646,0.74      c1.533-0.285,2.57-2.779,3.695-4.067c1.752-1.973,4.208-2.13,4.997,0.415c0.054,0.124,0.129,0.026,0.252,0.008      c1.585-0.295,1.624-0.859,1.628,0.687c0.002-0.098,0.05,1.452-0.243,1.652c-1.443,0.325-1.688,0.157-1.734,0.564      c-0.103,0.954-0.969,1.827-1.538,2.21c-0.566,0.383-1.033,0.453-1.685,0.573c-0.508,0.098-0.488-0.26-0.458-1.893      c0.014-1.615,1.471-0.689,1.475-1.881c-0.003-0.395-0.373-0.806-0.812-0.727c-1.04,0.202-2.003,2.182-2.745,3.37      C235.003,286.669,232.404,288.222,230.877,286.512z"/>
				<path style="fill:#000E3F;" d="M162.933,299.296c-0.122-0.105-0.677-0.959-0.666-1.053c-1.972,0.372-1.881,0.603-1.849-1.692      c-0.011-1.359,1.591-0.262,1.938-1.575c0.547-1.917,1.6-2.271,3.209-2.575c0.992-0.184,0.992-0.015,0.899,1.419      c-0.046,0.608,0.158,1.27-0.581,1.399c-0.775,0.145-1.348,0.235-1.35,1.052c-0.002,0.391,0.266,0.814,0.647,0.74      c1.539-0.286,2.566-2.778,3.695-4.067c1.759-1.975,4.205-2.13,4.997,0.415c0.055,0.124,0.12,0.028,0.252,0.008      c1.586-0.295,1.617-0.858,1.628,0.687c-0.002-0.097,0.054,1.451-0.243,1.653c-1.443,0.325-1.686,0.156-1.735,0.564      c-0.101,0.953-0.97,1.827-1.539,2.21c-0.564,0.383-1.035,0.454-1.684,0.574c-0.508,0.097-0.488-0.261-0.458-1.893      c0.015-1.615,1.468-0.688,1.475-1.881c0.009-0.397-0.383-0.804-0.812-0.727c-1.047,0.203-1.999,2.181-2.744,3.37      C167.071,299.438,164.464,301.019,162.933,299.296z"/>
				<path style="fill:#000E3F;" d="M195.59,270.592c-1.491,0.282-2.873-0.048-4.3-1.307c-0.276-0.195-1.629-1.778-1.657-1.942      c-3.718,0.694-3.544,1.167-4.22-3.108c-0.476-2.513,3.061-0.501,3.297-2.935c0.43-3.539,2.375-4.229,5.453-4.799      c1.919-0.36,1.952-0.048,2.274,2.611c0.128,1.115,0.742,2.329-0.672,2.589c-1.479,0.28-2.591,0.456-2.313,1.968      c0.133,0.734,0.794,1.484,1.523,1.36c2.949-0.549,4.148-5.165,5.925-7.567c2.782-3.674,7.592-3.982,10.026,0.706      c0.156,0.226,0.265,0.058,0.503,0.014c3.037-0.567,2.925-1.592,3.45,1.251c-0.021-0.175,0.588,2.682,0.068,3.06      c-2.735,0.63-3.282,0.317-3.24,1.067c0.113,1.767-1.325,3.39-2.325,4.113c-0.995,0.728-1.904,0.859-3.142,1.085      c-0.971,0.172-1.042-0.489-1.515-3.504c-0.495-2.976,2.675-1.286,2.293-3.499c-0.135-0.731-1.022-1.487-1.85-1.335      C201.674,261.072,202.258,269.337,195.59,270.592z"/>
				<path style="fill:#000E3F;" d="M163.181,158.989c-1.48,0.279-2.917-0.038-4.436-1.282c-0.296-0.195-1.714-1.751-1.747-1.925      c-3.692,0.689-3.598,1.16-4.25-3.103c-0.435-2.525,3.041-0.495,3.354-2.946c0.584-3.564,2.606-4.279,5.667-4.842      c1.922-0.349,1.902-0.045,2.089,2.648c0.136,2.073,0.799,2.354-1.814,2.838c-2.354,0.442-1.09,3.342,0.268,3.094      c4.27-0.801,4.113-9.162,10.405-10.329c2.531-0.477,4.468,1.174,5.569,3.463c0.155,0.244,2.135-0.465,3.025-0.633      c0.695-0.136,0.751,1.071,0.897,1.903c-0.04-0.166,0.593,2.667,0.103,3.054c-2.737,0.627-3.283,0.322-3.227,1.064      c0.164,1.755-1.178,3.366-2.133,4.077c-0.961,0.711-1.861,0.85-3.107,1.079c-1.142,0.21-1.128-1.132-1.266-1.551      c-0.144-0.693-0.328-1.224-0.462-1.916c-0.571-2.958,2.645-1.278,2.231-3.485c-0.132-0.724-1.016-1.498-1.843-1.336      c-2.005,0.369-3.245,4.073-4.22,6.251C167.37,157.139,165.082,158.635,163.181,158.989z"/>
				<path style="fill:#000E3F;" d="M207.581,105.692c2.069,0,3.527,1.625,3.395,3.925c-0.344,7.082-0.101,13.458,0.51,19.584      c0.873,8.855,2.39,17.589,4.555,26.218c3.644,14.574,8.792,28.704,13.798,42.842c5.201,14.607,10.256,29.294,13.769,44.417      c2.746,11.821,6.824,33.584,4.546,45.539c-0.219,1.231-1.128,2.538-2.218,3.267c-1.394,0.93-2.432,1.072-11.87,2.775      c-2.982,0.543-6.818,1.247-11.766,2.178c-66.291,12.456-50.023,9.665-58.474,11.056c-2.292,0.376-3.959,0.669-5.175,0.669      c-4.732,0-2.632-4.425-4.054-25.556c-0.714-10.599-2.584-20.925-5.482-31.149c-4.753-16.728-10.932-33.081-16.806-49.437      c-7.896-21.928-15.786-52.84-14.701-74.87c0.11-2.582,2.329-5.074,4.788-5.519l21.376-4.022      c12.697-2.407,28.749-5.392,41.484-7.788c7.198-1.336,14.376-2.687,21.568-4.058      C207.083,105.714,207.337,105.692,207.581,105.692 M207.582,101.498C207.581,101.498,207.581,101.498,207.582,101.498      c-0.497,0-1.003,0.046-1.504,0.137c-7.225,1.378-14.396,2.727-21.587,4.062c-4.999,0.941-10.496,1.97-16.101,3.019      c-8.706,1.63-17.673,3.308-25.398,4.772l-21.37,4.021c-4.396,0.796-8.011,4.954-8.203,9.463      c-1.117,22.668,6.987,54.369,14.945,76.469c0.965,2.686,1.939,5.375,2.913,8.066c4.854,13.4,9.873,27.257,13.805,41.096      c2.906,10.253,4.65,20.16,5.332,30.285c0.442,6.578,0.54,11.57,0.611,15.215c0.161,8.275,0.277,14.253,7.628,14.253      c1.46,0,3.076-0.266,5.312-0.635l0.541-0.089l1.543-0.253c1.77-0.289,1.77-0.289,3.676-0.666      c3.309-0.654,13.378-2.644,53.35-10.154c4.939-0.929,8.766-1.632,11.742-2.173l1.672-0.302      c8.633-1.556,9.742-1.755,11.775-3.111c2.065-1.38,3.604-3.686,4.02-6.02c2.595-13.617-2.345-37.563-4.59-47.224      c-3.596-15.479-8.84-30.656-13.903-44.875l-1.205-3.399c-4.509-12.706-9.172-25.843-12.474-39.053      c-2.105-8.391-3.602-17.007-4.449-25.612c-0.642-6.426-0.804-12.629-0.495-18.969c0.131-2.285-0.612-4.429-2.094-5.999      C211.656,102.323,209.707,101.498,207.582,101.498L207.582,101.498z"/>
			</g>
		</g>
		<g>
			<g>
				<path style="fill:#91D728;" d="M53.454,413.424c-3.368,0-6.744-2.484-7.691-5.654l-6.369-20.782      c-2.323-7.541-5.002-16.305-7.598-24.808l-4.756-15.552c-2.128-7.006-4.269-13.987-6.431-20.978      c-0.528-1.774-0.28-3.502,0.696-4.887c0.992-1.411,2.658-2.279,4.565-2.383c6.417-0.403,12.663-1.267,19.08-2.641      c8.561-1.823,17.057-4.297,25.256-7.357c12.861-4.789,25.451-10.908,37.627-16.826l3.233-1.57      c13.51-6.585,27.948-13.456,42.827-18.714c8.331-2.944,29.19-9.791,42.934-9.791c0.931,0,1.825,0.031,2.678,0.097      c1.761,0.114,3.707,1.128,4.933,2.579c1.292,1.536,1.6,2.565,3.986,10.569l0.498,1.671c0.867,2.898,1.993,6.627,3.468,11.436      c11.93,38.957,15.018,48.717,16.033,51.924c0.574,1.808,0.574,1.808,1.051,3.51l0.569,2.025c1.154,4.1,1.791,6.358,0.496,8.323      c-1.424,2.16-4.185,2.525-10.849,3.402c-3.636,0.479-8.615,1.134-15.15,2.314c-10.137,1.831-19.924,4.706-29.927,8.789      c-13.384,5.475-26.635,12.021-39.448,18.353c-2.56,1.265-5.12,2.53-7.682,3.788c-20.893,10.275-51.191,21.751-73.566,23.145      C53.775,413.42,53.613,413.424,53.454,413.424z"/>
				<g style="opacity:0.25;">
					<path style="fill:#000E3F;" d="M185.294,333.95c-9.817,2.95-20.26-2.714-23.623-13.717       c-3.349-10.948,1.643-23.069,11.463-26.022c9.809-2.981,20.828,4.583,24.188,15.55       C200.687,320.742,195.105,330.964,185.294,333.95z"/>
					<path style="fill:#000E3F;" d="M78.587,380.544c-9.813,2.979-20.831-4.593-24.187-15.556       c-3.359-10.984,2.217-21.205,12.029-24.184c9.829-2.954,20.255,2.719,23.625,13.721       C93.402,365.476,88.418,377.589,78.587,380.544z"/>
					<path style="fill:#000E3F;" d="M134.722,366.334c-13.6,6.657-28.702-1.305-33.607-17.328       c-4.885-15.958,2.294-33.915,15.888-40.578c13.593-6.661,28.703,1.308,33.607,17.327       C155.5,341.706,148.312,359.676,134.722,366.334z"/>
					<path style="fill:#000E3F;" d="M210.377,288.449c-6.132-20.015-6.115-21.255-7.534-22.939       c-0.848-1.007-2.256-1.753-3.497-1.847c-12.141-0.925-33.303,5.55-44.763,9.593c-14.635,5.163-28.661,11.834-42.601,18.612       c-13.49,6.559-26.965,13.233-41.035,18.48c-8.348,3.113-16.854,5.586-25.564,7.45c-6.019,1.288-12.328,2.237-19.405,2.688       c-2.573,0.131-4.086,2.154-3.355,4.544c2.144,6.992,4.288,13.988,6.431,20.982c3.787,12.39,8.544,28.001,12.338,40.372       c2.125,6.932,4.249,13.864,6.374,20.796c0.714,2.392,3.449,4.313,6.031,4.135c22.004-1.373,51.854-12.644,72.761-22.925       c15.602-7.673,31.165-15.622,47.268-22.209c9.823-4.018,19.887-7.029,30.334-8.912c26.212-4.725,26.781-1,23.725-11.931       C225.56,337.087,230.129,352.946,210.377,288.449z M214.767,328.668c-9.422,1.917-14.421,11.204-12.117,20.6       c-45.649,10.093-84.885,41.116-130.536,51.212c-3.403-9.219-12.999-14.929-23.062-15.11       c-4.007-13.073-8.013-26.146-12.021-39.22c9.688-1.952,14.696-11.707,11.924-21.353c45.625-10.102,84.843-41.099,130.467-51.2       c3.12,9.648,12.988,15.678,23.329,15.868C206.757,302.532,210.762,315.599,214.767,328.668z"/>
				</g>
				<path style="opacity:0.25;fill:#000E3F;" d="M227.875,345.334c3.076,10.942,2.487,7.21-23.707,11.938      c-10.454,1.888-20.508,4.895-30.347,8.912c-16.096,6.583-31.66,14.542-47.261,22.198      c-20.914,10.285-50.757,21.563-72.772,22.934c-2.578,0.178-5.301-1.75-6.017-4.145l-0.925-3.017      c2.719-2.502,6.529-3.744,10.377-5.22c7.67-2.925,15.298-5.986,22.844-9.189c34.76-14.714,66.537-29.423,108.883-77.035      c9.231-10.357,15.915-22.121,17.962-35.708c0.871,2.904,1.997,6.637,3.472,11.451      C230.135,352.947,225.553,337.09,227.875,345.334z"/>
			</g>
			<g>
				<path style="fill:#000E3F;" d="M136.326,347.856c-0.21,0.477-2.081,3.073-2.306,3.181c1.579,5.176,2.133,4.702-3.451,7.284      c-3.311,1.591-1.175-4.23-4.512-3.723c-4.857,0.591-6.143-2.032-7.415-6.268c-0.812-2.642-0.39-2.777,3.161-4.129      c1.496-0.555,3.015-1.89,3.607,0.067c0.613,2.043,1.055,3.582,3.036,2.631c0.951-0.458,1.861-1.718,1.563-2.718      c-1.241-4.054-7.638-4.072-11.191-5.859c-5.461-2.842-6.658-9.577-0.732-14.707c0.276-0.295,0.025-0.399-0.066-0.731      c-1.275-4.193-2.627-3.652,1.099-5.442c-0.215,0.103,3.482-1.845,4.087-1.26c1.313,3.739,0.985,4.628,1.98,4.287      c2.341-0.851,4.746,0.551,5.875,1.712c1.131,1.156,1.462,2.408,1.983,4.125c0.409,1.34-0.467,1.742-4.405,3.635      c-3.899,1.872-2.165-3.379-5.074-1.979c-0.944,0.453-1.83,2.029-1.479,3.169c0.841,2.758,6.006,3.168,9.126,3.849      C135.188,335.842,139.911,341.378,136.326,347.856z"/>
				<path style="fill:#000E3F;" d="M40.132,337.037c-0.094,0.143-0.864,0.803-0.962,0.814c0.571,1.896,0.826,1.825-1.472,2.037      c-1.355,0.141-0.439-1.548-1.787-1.773c-1.99-0.391-2.471-1.427-2.941-2.985c-0.295-0.97-0.119-0.962,1.332-0.98      c0.611-0.003,1.24-0.262,1.462,0.454c0.225,0.751,0.388,1.32,1.2,1.232c0.391-0.043,0.766-0.359,0.662-0.728      c-0.465-1.484-3.037-2.238-4.47-3.27c-2.183-1.615-2.591-3.982-0.13-4.971c0.113-0.062,0.018-0.132-0.017-0.251      c-0.475-1.546-1.023-1.522,0.505-1.683c-0.091,0.012,1.42-0.212,1.662,0.045c0.483,1.395,0.347,1.663,0.755,1.656      c0.953-0.031,1.898,0.703,2.345,1.21c0.443,0.508,0.561,0.97,0.753,1.597c0.148,0.49-0.2,0.546-1.805,0.749      c-1.59,0.194-0.843-1.375-2.027-1.233c-0.399,0.039-0.76,0.47-0.633,0.884c0.312,1.02,2.392,1.762,3.642,2.321      C39.847,332.909,41.624,335.267,40.132,337.037z"/>
				<path style="fill:#000E3F;" d="M60.859,400.956c0.237,0.753,0.135,1.47-0.467,2.182c-0.096,0.136-0.864,0.802-0.962,0.813      c0.573,1.904,0.826,1.823-1.472,2.037c-1.355,0.141-0.438-1.545-1.787-1.773c-1.988-0.385-2.47-1.424-2.941-2.985      c-0.298-0.978-0.12-0.964,1.332-0.98c0.612,0,1.24-0.259,1.462,0.454c0.226,0.756,0.387,1.316,1.201,1.232      c0.392-0.041,0.765-0.359,0.662-0.728c-0.464-1.481-3.037-2.238-4.47-3.27c-2.181-1.611-2.591-3.982-0.13-4.971      c0.113-0.062,0.018-0.13-0.017-0.251c-0.474-1.545-1.025-1.526,0.505-1.683c-0.09,0.015,1.42-0.211,1.663,0.045      c0.485,1.402,0.348,1.664,0.754,1.656c0.954-0.026,1.898,0.702,2.345,1.21c0.443,0.51,0.558,0.962,0.753,1.597      c0.148,0.489-0.2,0.545-1.805,0.749c-1.591,0.193-0.843-1.373-2.027-1.233c-0.398,0.044-0.761,0.465-0.633,0.884      c0.313,1.024,2.391,1.759,3.642,2.321C59.618,398.788,60.572,399.993,60.859,400.956z"/>
				<path style="fill:#000E3F;" d="M199.57,281.031c-0.091,0.132-0.88,0.77-0.973,0.779c0.587,1.912,0.81,1.806-1.476,2.026      c-1.35,0.158-0.436-1.551-1.78-1.751c-1.967-0.331-2.434-1.338-2.916-2.902c-0.295-0.971-0.124-0.982,1.31-1.052      c0.608-0.025,1.244-0.302,1.455,0.422c0.231,0.757,0.384,1.316,1.196,1.225c0.387-0.044,0.778-0.358,0.663-0.725      c-0.453-1.491-3.047-2.245-4.452-3.22c-2.156-1.521-2.585-3.944-0.143-5.012c0.118-0.068,0.011-0.131-0.02-0.251      c-0.469-1.543-1.034-1.518,0.502-1.694c-0.098,0.009,1.437-0.212,1.669,0.058c0.484,1.398,0.343,1.66,0.754,1.661      c0.959-0.003,1.923,0.76,2.368,1.283c0.443,0.519,0.565,0.976,0.757,1.61c0.154,0.494-0.205,0.513-1.83,0.666      c-1.606,0.165-0.848-1.385-2.034-1.256c-0.392,0.047-0.76,0.46-0.632,0.887c0.316,1.011,2.391,1.748,3.654,2.353      C199.267,276.913,201.1,279.323,199.57,281.031z"/>
				<path style="fill:#000E3F;" d="M219.829,347.132c-0.091,0.133-0.877,0.78-0.973,0.779c0.589,1.919,0.809,1.803-1.476,2.026      c-1.349,0.162-0.437-1.552-1.781-1.751c-1.966-0.331-2.434-1.337-2.916-2.903c-0.293-0.966-0.125-0.984,1.31-1.051      c0.609-0.022,1.245-0.298,1.455,0.422c0.23,0.754,0.384,1.314,1.196,1.225c0.388-0.041,0.779-0.355,0.663-0.725      c-0.456-1.498-3.046-2.241-4.452-3.22c-2.158-1.529-2.584-3.942-0.143-5.012c0.117-0.069,0.014-0.122-0.02-0.251      c-0.469-1.543-1.032-1.512,0.502-1.694c-0.097,0.012,1.436-0.215,1.669,0.058c0.484,1.398,0.343,1.658,0.754,1.661      c0.959-0.006,1.924,0.761,2.368,1.283c0.443,0.518,0.566,0.978,0.757,1.61c0.153,0.495-0.205,0.514-1.83,0.666      c-1.606,0.164-0.847-1.383-2.034-1.256c-0.396,0.035-0.757,0.47-0.632,0.887c0.318,1.018,2.39,1.745,3.654,2.353      C219.51,343.004,221.371,345.419,219.829,347.132z"/>
				<path style="fill:#000E3F;" d="M187.671,317.869c0.446,1.45,0.272,2.86-0.821,4.419c-0.164,0.296-1.586,1.817-1.746,1.862      c1.103,3.617,1.554,3.392-2.62,4.539c-2.445,0.752-0.838-2.987-3.283-2.95c-3.565-0.034-4.467-1.89-5.376-4.885      c-0.572-1.867-0.264-1.934,2.342-2.55c1.094-0.251,2.232-0.996,2.648,0.38c0.443,1.439,0.741,2.524,2.213,2.079      c0.715-0.214,1.386-0.954,1.182-1.665c-0.874-2.869-5.594-3.548-8.179-5.047c-3.96-2.356-4.801-7.103-0.413-10.042      c0.207-0.18,0.028-0.27-0.042-0.502c-0.901-2.955-1.908-2.73,0.859-3.568c-0.172,0.04,2.6-0.882,3.034-0.409      c0.93,2.648,0.68,3.227,1.42,3.101c1.743-0.309,3.517,0.94,4.346,1.853c0.834,0.908,1.065,1.796,1.428,3.002      c0.279,0.946-0.37,1.09-3.314,1.895c-2.902,0.823-1.575-2.516-3.732-1.89c-0.712,0.215-1.365,1.181-1.121,1.987      C177.534,312.881,185.683,311.383,187.671,317.869z"/>
				<path style="fill:#000E3F;" d="M80.364,362.486c0.442,1.44,0.286,2.904-0.78,4.551c-0.161,0.315-1.549,1.898-1.719,1.95      c1.096,3.593,1.553,3.447-2.611,4.568c-2.461,0.713-0.83-2.967-3.3-3.005c-3.607-0.185-4.543-2.114-5.442-5.093      c-0.56-1.872-0.256-1.885,2.4-2.37c2.045-0.365,2.25-1.056,3.022,1.487c0.701,2.29,3.442,0.711,3.045-0.61      c-1.271-4.154-9.562-3.069-11.422-9.192c-0.756-2.463,0.67-4.571,2.822-5.919c0.225-0.181-0.7-2.07-0.965-2.936      c-0.212-0.675,0.98-0.865,1.791-1.103c-0.16,0.058,2.585-0.886,3.023-0.442c0.927,2.651,0.686,3.226,1.416,3.088      c1.726-0.358,3.476,0.797,4.288,1.666c0.813,0.876,1.052,1.755,1.418,2.968c0.335,1.111-0.999,1.247-1.4,1.43      c-0.672,0.22-1.179,0.462-1.853,0.672c-2.876,0.896-1.564-2.486-3.712-1.83c-0.705,0.211-1.376,1.176-1.123,1.98      c0.59,1.951,4.408,2.773,6.681,3.499C78.06,358.528,79.802,360.636,80.364,362.486z"/>
				<path style="fill:#000E3F;" d="M196.829,263.581c0.874,0,1.713,0.029,2.514,0.091c1.248,0.081,2.648,0.839,3.493,1.841      c1.079,1.283,1.335,2.298,4.078,11.488c0.871,2.904,1.997,6.637,3.472,11.451c19.749,64.495,15.167,48.638,17.489,56.882      c3.076,10.942,2.487,7.21-23.707,11.938c-10.454,1.888-20.508,4.895-30.347,8.912c-16.096,6.583-31.66,14.542-47.261,22.198      c-20.914,10.285-50.757,21.563-72.772,22.934c-0.111,0.007-0.222,0.011-0.333,0.011c-2.476,0-4.999-1.865-5.684-4.156      l-6.374-20.796c-3.804-12.351-8.555-27.971-12.352-40.361c-2.128-7.005-4.268-13.988-6.431-20.983      c-0.715-2.395,0.797-4.416,3.369-4.555c7.076-0.445,13.386-1.396,19.406-2.685c8.703-1.852,17.214-4.331,25.549-7.441      c14.079-5.242,27.549-11.929,41.042-18.475c13.938-6.793,27.972-13.449,42.611-18.622      C165.279,269.476,184.457,263.581,196.829,263.581 M196.829,259.387L196.829,259.387c-14.07,0-35.202,6.932-43.635,9.912      c-14.984,5.295-29.484,12.194-43.05,18.806l-3.245,1.576c-12.125,5.893-24.663,11.988-37.423,16.739      c-8.105,3.025-16.502,5.47-24.958,7.269c-6.315,1.352-12.461,2.203-18.796,2.602c-2.517,0.136-4.765,1.328-6.13,3.268      c-1.333,1.893-1.695,4.326-0.995,6.673c2.173,7.027,4.311,14.003,6.437,21.002c1.493,4.873,3.131,10.234,4.8,15.699      c2.584,8.461,5.245,17.172,7.556,24.677l6.372,20.791c1.21,4.048,5.381,7.121,9.694,7.121c0.208,0,0.416-0.007,0.623-0.022      c22.651-1.41,53.255-12.989,74.333-23.354c2.562-1.258,5.126-2.524,7.692-3.792c12.778-6.313,25.99-12.842,39.306-18.288      c9.866-4.028,19.518-6.863,29.504-8.666c6.486-1.171,11.436-1.823,15.05-2.299c7.125-0.938,10.377-1.366,12.328-4.327      c1.822-2.765,1.006-5.661-0.23-10.046l-0.149-0.529l-0.422-1.505c-0.484-1.727-0.484-1.727-1.071-3.579      c-1.018-3.215-4.114-12.999-16.023-51.891c-1.473-4.805-2.597-8.53-3.466-11.428l-0.486-1.629      c-2.505-8.406-2.827-9.486-4.4-11.355c-1.601-1.899-4.064-3.172-6.43-3.326C198.774,259.421,197.819,259.387,196.829,259.387      L196.829,259.387z"/>
			</g>
		</g>
		<g>
			<g>
				<path style="fill:#91D728;" d="M164.313,343.979c-2.378,0-4.494-1.892-9.134-6.039c-2.735-2.443-6.478-5.789-11.637-9.973      c-7.992-6.485-16.554-12.029-26.182-16.951c-12.875-6.573-26.473-12.343-39.623-17.923c-2.635-1.12-5.27-2.237-7.898-3.361      c-21.419-9.136-49.881-24.617-65.529-40.665c-2.46-2.491-2.933-6.918-1.047-9.861l11.598-18.382      c4.089-6.505,8.84-14.018,13.473-21.346l9.063-14.342c3.923-6.185,7.819-12.358,11.707-18.558      c1.097-1.712,2.794-2.685,4.667-2.685c1.561,0,3.079,0.686,4.273,1.932c4.487,4.596,9.216,8.767,14.447,12.739      c6.961,5.299,14.377,10.125,22.047,14.345c12.003,6.617,24.837,12.161,37.245,17.523l3.352,1.449      c13.803,5.945,28.428,12.407,42.119,20.256c8.49,4.866,29.097,17.36,37.102,28.249c1.06,1.413,1.563,3.548,1.263,5.422      c-0.323,1.985-0.903,2.891-5.429,9.945l-0.924,1.44c-1.632,2.548-3.725,5.833-6.406,10.087      c-21.769,34.484-27.142,43.175-28.908,46.03c-0.992,1.607-0.992,1.607-1.975,3.085l-1.158,1.743      C168.406,341.781,166.948,343.979,164.313,343.979z"/>
				<g style="opacity:0.25;">
					<path style="fill:#000E3F;" d="M150.231,296.82c-8.639-5.517-11.158-17.127-5.011-26.853       c6.114-9.68,18.558-13.801,27.201-8.285c8.658,5.491,10.111,18.777,3.99,28.477       C170.283,299.872,158.894,302.309,150.231,296.82z"/>
					<path style="fill:#000E3F;" d="M45.313,246.328c-8.659-5.495-10.106-18.785-3.985-28.48       c6.135-9.711,17.519-12.151,26.177-6.656c8.65,5.524,11.151,17.127,5.009,26.857C66.397,247.73,53.965,251.852,45.313,246.328z       "/>
					<path style="fill:#000E3F;" d="M92.698,279.61c-13.917-5.966-17.732-22.608-8.785-36.776       c8.91-14.112,27.203-20.383,41.121-14.425c13.916,5.959,17.731,22.61,8.786,36.776       C124.92,279.296,106.609,285.568,92.698,279.61z"/>
					<path style="fill:#000E3F;" d="M201.082,286.154c11.172-17.703,12.122-18.499,12.474-20.673       c0.21-1.299-0.143-2.853-0.881-3.856c-7.218-9.807-25.929-21.624-36.468-27.673c-13.46-7.725-27.665-14.006-41.895-20.152       c-13.771-5.947-27.619-11.808-40.773-19.05c-7.805-4.297-15.228-9.132-22.322-14.518c-4.902-3.722-9.736-7.885-14.695-12.955       c-1.777-1.864-4.297-1.692-5.632,0.421c-3.902,6.186-7.806,12.375-11.71,18.561C32.257,197.211,23.527,211,16.624,221.945       c-3.869,6.133-7.737,12.264-11.606,18.396c-1.348,2.102-1.02,5.427,0.8,7.268c15.393,15.784,43.406,31.058,64.836,40.199       c15.993,6.822,32.169,13.433,47.666,21.343c9.453,4.825,18.299,10.489,26.541,17.18c20.679,16.787,18.226,19.648,24.519,10.202       C174.118,329.388,165.076,343.195,201.082,286.154z M173.46,315.715c-7.598-5.892-17.899-3.624-23.518,4.252       c-37.426-28.018-86.534-37.524-123.963-65.542c4.768-8.592,2.838-19.591-3.589-27.337       c7.296-11.564,14.591-23.128,21.888-34.693c7.799,6.071,18.459,3.504,23.963-4.889c37.416,27.994,86.493,37.503,123.908,65.497       c-5.278,8.658-3.413,20.071,3.189,28.033C188.046,292.596,180.753,304.155,173.46,315.715z"/>
				</g>
				<path style="opacity:0.25;fill:#000E3F;" d="M169.377,336.521c-6.288,9.469-3.842,6.588-24.512-10.183      c-8.249-6.693-17.087-12.352-26.549-17.19c-15.489-7.907-31.674-14.512-47.653-21.344c-21.437-9.145-49.452-24.408-64.85-40.201      c-1.817-1.838-2.131-5.16-0.783-7.264l1.684-2.669c3.67,0.429,7.096,2.507,10.726,4.461c7.22,3.906,14.515,7.691,21.865,11.322      c33.826,16.751,65.702,31.243,129.413,32.286c13.871,0.241,27.148-2.366,38.783-9.677c-1.633,2.554-3.728,5.843-6.415,10.101      C165.08,343.2,174.111,329.384,169.377,336.521z"/>
			</g>
			<g>
				<path style="fill:#000E3F;" d="M107.751,268.773c-0.498,0.152-3.687,0.427-3.915,0.327c-2.894,4.573-2.173,4.684-7.773,2.135      c-3.365-1.472,2.44-3.65-0.121-5.848c-3.616-3.296-2.466-5.981-0.086-9.709c1.472-2.339,1.85-2.107,5.192-0.297      c1.396,0.771,3.399,1.052,2.302,2.778c-1.149,1.797-2.027,3.137-0.014,4.017c0.967,0.422,2.516,0.29,3.08-0.588      c2.264-3.585-1.895-8.446-2.859-12.304c-1.408-5.993,2.916-11.293,10.671-10.148c0.404,0.017,0.319-0.241,0.511-0.527      c2.346-3.701,1.055-4.373,4.842-2.717c-0.219-0.096,3.67,1.436,3.621,2.276c-1.977,3.435-2.865,3.765-1.958,4.298      c2.172,1.219,2.678,3.957,2.535,5.57c-0.138,1.611-0.872,2.679-1.833,4.193c-0.749,1.184-1.625,0.782-5.628-0.968      c-3.963-1.734,1.15-3.845-1.809-5.137c-0.959-0.421-2.731-0.063-3.366,0.946c-1.542,2.436,1.516,6.619,3.035,9.428      C116.115,260.074,114.999,267.265,107.751,268.773z"/>
				<path style="fill:#000E3F;" d="M53.208,188.802c-0.169,0.022-1.172-0.131-1.244-0.199c-1.065,1.67-0.844,1.817-2.505,0.213      c-0.991-0.935,0.887-1.343,0.178-2.512c-1.001-1.764-0.53-2.803,0.344-4.176c0.543-0.856,0.652-0.718,1.612,0.37      c0.4,0.461,1.007,0.768,0.609,1.404c-0.423,0.661-0.748,1.156-0.151,1.713c0.288,0.269,0.771,0.346,0.984,0.027      c0.822-1.32-0.285-3.762-0.437-5.521c-0.2-2.708,1.328-4.561,3.683-3.341c0.121,0.046,0.112-0.073,0.179-0.177      c0.862-1.368,0.486-1.769,1.605-0.715c-0.068-0.061,1.087,0.938,1.05,1.29c-0.742,1.275-1.033,1.348-0.763,1.652      c0.645,0.703,0.705,1.897,0.613,2.567c-0.096,0.667-0.37,1.058-0.72,1.612c-0.274,0.432-0.544,0.204-1.745-0.88      c-1.184-1.079,0.492-1.536-0.387-2.34c-0.29-0.277-0.851-0.269-1.083,0.097c-0.57,0.901,0.224,2.962,0.616,4.275      C56.151,185.893,55.523,188.779,53.208,188.802z"/>
				<path style="fill:#000E3F;" d="M18.277,246.204c-0.416,0.671-1.027,1.061-1.958,1.069c-0.166,0.016-1.172-0.132-1.244-0.199      c-1.069,1.676-0.843,1.815-2.505,0.213c-0.991-0.935,0.885-1.34,0.178-2.512c-1.005-1.759-0.532-2.801,0.344-4.176      c0.547-0.864,0.652-0.719,1.612,0.37c0.399,0.464,1.006,0.771,0.61,1.404c-0.426,0.665-0.745,1.151-0.151,1.713      c0.287,0.27,0.771,0.346,0.984,0.027c0.82-1.318-0.284-3.762-0.438-5.521c-0.201-2.704,1.328-4.562,3.683-3.341      c0.121,0.045,0.11-0.072,0.179-0.177c0.861-1.367,0.489-1.772,1.605-0.715c-0.07-0.058,1.086,0.939,1.05,1.29      c-0.746,1.282-1.035,1.349-0.763,1.652c0.642,0.706,0.706,1.897,0.613,2.567c-0.098,0.669-0.365,1.051-0.719,1.612      c-0.274,0.431-0.544,0.203-1.745-0.88c-1.183-1.08,0.491-1.534-0.387-2.34c-0.293-0.273-0.849-0.274-1.083,0.096      c-0.572,0.905,0.226,2.96,0.616,4.275C19.111,243.85,18.82,245.359,18.277,246.204z"/>
				<path style="fill:#000E3F;" d="M199.655,273.124c-0.159,0.017-1.158-0.165-1.225-0.229c-1.067,1.692-0.841,1.792-2.498,0.203      c-1.001-0.92,0.89-1.342,0.166-2.492c-1.031-1.707-0.574-2.718,0.298-4.103c0.544-0.857,0.663-0.735,1.652,0.307      c0.416,0.444,1.04,0.746,0.629,1.378c-0.423,0.669-0.747,1.15-0.149,1.705c0.286,0.265,0.779,0.356,0.982,0.03      c0.835-1.316-0.286-3.774-0.463-5.475c-0.253-2.626,1.304-4.532,3.706-3.378c0.128,0.045,0.107-0.077,0.177-0.179      c0.863-1.362,0.477-1.774,1.611-0.724c-0.071-0.068,1.098,0.951,1.045,1.303c-0.744,1.279-1.035,1.343-0.768,1.655      c0.628,0.725,0.678,1.954,0.572,2.632c-0.104,0.675-0.371,1.066-0.727,1.624c-0.275,0.439-0.523,0.18-1.699-0.953      c-1.173-1.11,0.497-1.546-0.374-2.361c-0.291-0.267-0.844-0.276-1.085,0.099c-0.56,0.899,0.234,2.952,0.6,4.305      C202.579,270.209,201.948,273.17,199.655,273.124z"/>
				<path style="fill:#000E3F;" d="M162.766,331.596c-0.16,0.018-1.163-0.157-1.225-0.229c-1.07,1.698-0.839,1.789-2.498,0.203      c-1.003-0.917,0.891-1.343,0.166-2.492c-1.032-1.706-0.574-2.717,0.298-4.103c0.541-0.852,0.665-0.737,1.651,0.307      c0.414,0.447,1.038,0.749,0.629,1.378c-0.422,0.666-0.746,1.148-0.149,1.705c0.285,0.267,0.777,0.359,0.982,0.03      c0.839-1.323-0.288-3.771-0.463-5.475c-0.249-2.633,1.302-4.53,3.706-3.378c0.129,0.044,0.102-0.069,0.177-0.179      c0.863-1.362,0.473-1.768,1.611-0.724c-0.072-0.065,1.1,0.948,1.045,1.303c-0.744,1.279-1.034,1.342-0.768,1.655      c0.63,0.723,0.678,1.954,0.572,2.632c-0.104,0.673-0.372,1.067-0.727,1.624c-0.275,0.439-0.523,0.18-1.698-0.953      c-1.173-1.11,0.495-1.544-0.374-2.361c-0.285-0.277-0.85-0.267-1.085,0.099c-0.564,0.905,0.236,2.949,0.6,4.305      C165.686,328.662,165.07,331.647,162.766,331.596z"/>
				<path style="fill:#000E3F;" d="M163.971,288.133c-0.808,1.284-1.99,2.071-3.885,2.26c-0.331,0.069-2.412-0.017-2.55-0.109      c-2.022,3.195-1.558,3.391-5.15,0.975c-2.164-1.363,1.717-2.584,0.095-4.413c-2.3-2.724-1.481-4.618,0.197-7.261      c1.042-1.651,1.294-1.462,3.46,0.112c0.904,0.665,2.211,1.042,1.439,2.255c-0.802,1.274-1.43,2.208-0.133,3.033      c0.628,0.402,1.627,0.429,2.033-0.19c1.605-2.534-0.96-6.555-1.509-9.492c-0.797-4.539,2.252-8.272,7.342-6.863      c0.272,0.039,0.223-0.155,0.353-0.36c1.652-2.61,0.825-3.227,3.265-1.676c-0.142-0.104,2.365,1.396,2.288,2.033      c-1.4,2.432-2.002,2.62-1.424,3.099c1.371,1.12,1.581,3.279,1.43,4.503c-0.144,1.224-0.667,1.979-1.344,3.04      c-0.535,0.828-1.068,0.431-3.598-1.276c-2.516-1.663,0.88-2.835-1.002-4.062c-0.627-0.399-1.785-0.263-2.237,0.446      C161.14,277.196,167.591,282.395,163.971,288.133z"/>
				<path style="fill:#000E3F;" d="M60.16,235.896c-0.803,1.274-2.014,2.111-3.959,2.377c-0.344,0.084-2.449,0.064-2.599-0.031      c-2.008,3.174-1.6,3.425-5.166,1c-2.146-1.401,1.708-2.564,0.125-4.462c-2.213-2.855-1.361-4.822,0.311-7.447      c1.053-1.645,1.262-1.424,3.362,0.273c1.611,1.312,2.268,1.017,0.844,3.261c-1.279,2.025,1.706,3.073,2.449,1.91      c2.32-3.673-3.911-9.249-0.482-14.653c1.374-2.179,3.901-2.474,6.327-1.722c0.284,0.053,1.113-1.881,1.596-2.647      c0.373-0.602,1.296,0.179,2.004,0.638c-0.149-0.084,2.358,1.381,2.307,2.003c-1.404,2.432-1.998,2.624-1.417,3.088      c1.397,1.075,1.663,3.155,1.535,4.337c-0.133,1.188-0.644,1.942-1.325,3.01c-0.624,0.979-1.597,0.056-1.998-0.128      c-0.605-0.367-1.119-0.593-1.718-0.966c-2.555-1.596,0.864-2.807-1.034-4.007c-0.62-0.396-1.789-0.276-2.234,0.44      c-1.094,1.72,0.774,5.15,1.705,7.346C61.657,231.569,61.195,234.264,60.16,235.896z"/>
				<path style="fill:#000E3F;" d="M53.772,165.99c0.952,0,1.935,0.425,2.76,1.286c4.953,5.073,9.789,9.236,14.693,12.958      c7.08,5.389,14.511,10.223,22.305,14.512c13.157,7.253,27.011,13.101,40.775,19.059c14.24,6.134,28.44,12.431,41.909,20.152      c10.529,6.036,29.246,17.865,36.452,27.672c0.753,0.999,1.092,2.554,0.883,3.848c-0.268,1.655-0.87,2.511-6.048,10.584      c-1.633,2.554-3.728,5.843-6.415,10.101c-36.006,57.038-26.974,43.221-31.709,50.358c-2.355,3.547-3.486,5.361-5.064,5.361      c-2.635,0-6.521-5.055-19.448-15.544c-8.249-6.693-17.087-12.352-26.549-17.19c-15.489-7.907-31.674-14.512-47.653-21.344      c-21.437-9.145-49.452-24.409-64.85-40.201c-1.817-1.838-2.131-5.16-0.783-7.264l11.606-18.396      c6.881-10.939,15.622-24.729,22.536-35.688c3.922-6.182,7.819-12.359,11.71-18.561C51.606,166.563,52.668,165.99,53.772,165.99       M53.773,161.796L53.773,161.796c-2.601,0-4.942,1.324-6.422,3.633c-3.909,6.23-7.803,12.402-11.721,18.578      c-2.717,4.307-5.71,9.041-8.761,13.867c-4.73,7.481-9.6,15.185-13.784,21.835L1.482,238.101      c-2.41,3.761-1.825,9.241,1.347,12.45c15.844,16.25,44.582,31.895,66.187,41.111c2.624,1.121,5.256,2.238,7.89,3.356      c13.121,5.567,26.688,11.324,39.502,17.866c9.489,4.851,17.933,10.318,25.813,16.711c5.118,4.153,8.841,7.48,11.56,9.909      c5.049,4.513,7.354,6.572,10.531,6.572c3.76,0,5.646-2.843,8.255-6.779l0.303-0.457l0.865-1.301      c0.993-1.494,0.994-1.494,2.015-3.146c1.773-2.868,7.169-11.596,28.882-45.993c2.681-4.25,4.772-7.532,6.402-10.081l0.918-1.43      c4.737-7.382,5.346-8.331,5.737-10.742c0.395-2.452-0.246-5.149-1.673-7.043c-8.208-11.17-29.111-23.854-37.716-28.786      c-13.786-7.904-28.474-14.394-42.335-20.365l-3.309-1.431c-12.377-5.347-25.175-10.876-37.1-17.449      c-7.579-4.171-14.91-8.94-21.79-14.176c-5.144-3.904-9.797-8.008-14.232-12.551C57.965,162.711,55.91,161.796,53.773,161.796      L53.773,161.796z"/>
			</g>
		</g>
	</g>
	<g>
		<g>
			<path style="fill:#915EFD;" d="M359.636,197.987c2.4,3.355,4.52,6.921,6.431,10.578c1.351,2.54,2.586,5.126,3.728,7.736     c0.699,1.561,1.352,3.169,1.981,4.73c0.699,1.701,1.351,3.379,2.004,5.08c1.584,4.217,3.006,8.318,4.334,12.186     c0.256,0.769,0.536,1.538,0.769,2.307c6.221,18.501,10.229,38.609,11.697,58.881c0.35,4.311,0.559,8.551,0.629,12.746     c0.163,7.852-0.047,15.681-0.676,23.417c-0.326,4.054-0.769,8.062-1.305,12.046c-0.14,1.002-0.28,2.004-0.443,2.983     c-0.559,3.751-1.235,7.433-2.004,11.045c-0.21,0.978-0.419,1.934-0.652,2.913c-0.21,0.955-0.443,1.934-0.676,2.889     c-0.233,0.932-0.489,1.887-0.722,2.819c-0.256,0.955-0.513,1.887-0.769,2.819c-0.256,0.932-0.536,1.841-0.792,2.75     c-0.28,0.932-0.559,1.841-0.839,2.726c-1.398,4.45-2.983,8.807-4.73,13.025c-0.699,1.655-1.421,3.286-2.144,4.893     c-1.841,4.008-3.821,7.829-5.918,11.44c-34.881,60.093-134.423,59.534-190.857,7.549c-23.324-21.507-38.143-50.213-41.289-78.733     c-0.396-3.425-0.583-6.85-0.629-10.276v-2.051c0.023-2.19,0.117-4.427,0.28-6.617c5.056-64.008,106.531-136.287,170.958-141.902     c-16.59-21.39-18.314-52.776-3.635-70.997c8.248-10.229,22.182-14.68,30.477-1.608c3.099,4.847,2.75,11.277,7.946,15.169     c10.532,7.876,23.161-3.985,33.856,3.635c7.363,5.219,3.355,12.023,8.249,17.615c7.852,8.971,21.646-0.466,29.778,10.532     c1.445,1.957,2.237,4.101,2.423,6.385C418.517,172.892,390.277,195.377,359.636,197.987z"/>
			<path style="fill:#FFFFFF;" d="M259.239,395.269c-2.002,4.203-5.341,7.173-11.174,8.594c-1.011,0.358-7.434,1.009-7.928,0.774     c-0.421,0.884-2.985,6.02-3.402,6.895l-0.186,0.39c-0.747,1.568-2.238,2.176-4.976,0.872c-1.266-0.603-2.68-1.16-4.153-1.861     l-2.73-1.301c-7.14-3.401,4.286-8.506-1.332-13.584c-7.99-7.644-6.124-13.836-1.98-22.536c1.862-3.908,2.374-4.983,6.871-2.84     c1.473,0.701,2.552,1.45,3.673,2.111c2.988,1.785,7.122,2.435,5.214,6.439c-0.512,1.075-0.837,2.004-1.349,3.078     c-0.978,2.053-1.363,4.624,2.06,6.255c2.054,0.978,5.195,0.678,6.173-1.376c3.959-8.31-5.414-19.611-8.101-28.568     c-1.402-4.867-1.273-10.92,0.964-15.616c1.536-3.224,4.1-5.84,7.708-7.12c3.314-1.175,7.765-1.457,11.219-0.896     c0.821,0.04,0.617-0.536,0.943-1.221c0.235-0.493,2.73-6.981,2.961-7.467c0.933-1.958,4.066,0.013,6.414,1.132     c-0.486-0.231,7.766,3.338,7.799,5.278l-3.819,8.016c-0.417,0.876-0.217,1.459,0.621,1.976c4.656,2.814,6.182,9.185,6.205,12.908     c0.02,3.73-1.285,6.224-2.961,9.742c-0.933,1.958-2.487,1.94-4.541,0.962l-1.56-0.743c-1.958-0.933-3.617-1.489-5.568-2.418     c-8.406-4.004,1.624-8.944-4.633-11.924c-2.054-0.978-5.579-0.138-6.698,2.21c-2.7,5.667,4.32,15.369,7.922,21.89     C262.262,381.357,261.798,389.896,259.239,395.269z"/>
			<g>
				<path style="fill:#FF8EDE;" d="M203.383,311.04l-1.014,14.048c-0.042,0.578,0.203,1.139,0.656,1.501l10.997,8.8      c1.139,0.911,0.738,2.733-0.678,3.083l-13.674,3.376c-0.562,0.139-1.02,0.546-1.225,1.087l-4.971,13.178      c-0.515,1.365-2.371,1.547-3.141,0.308l-7.437-11.962c-0.306-0.492-0.834-0.802-1.413-0.829l-14.069-0.655      c-1.457-0.068-2.204-1.777-1.264-2.892l9.078-10.769c0.373-0.443,0.505-1.041,0.352-1.6l-3.725-13.583      c-0.386-1.407,1.009-2.645,2.36-2.096l13.047,5.306c0.537,0.218,1.146,0.158,1.63-0.16l11.767-7.74      C201.879,308.641,203.488,309.585,203.383,311.04z"/>
				<path style="fill:#FF8EDE;" d="M320.925,367.034l-10.27,9.639c-0.422,0.397-1.013,0.56-1.579,0.436l-13.762-2.995      c-1.425-0.31-2.587,1.148-1.967,2.469l5.994,12.746c0.246,0.524,0.219,1.136-0.073,1.636l-7.102,12.163      c-0.735,1.259,0.293,2.816,1.74,2.633l13.974-1.762c0.575-0.072,1.148,0.142,1.534,0.575l9.373,10.513      c0.971,1.089,2.768,0.592,3.042-0.841l2.642-13.834c0.109-0.569,0.491-1.048,1.021-1.281l12.895-5.666      c1.335-0.587,1.418-2.45,0.14-3.153l-12.341-6.788c-0.507-0.279-0.845-0.79-0.903-1.367l-1.404-14.014      C323.735,366.69,321.989,366.036,320.925,367.034z"/>
			</g>
			<path style="fill:#FFCF00;" d="M375.877,208.496c-0.629,4.124-4.474,6.967-8.598,6.338c-18.78-2.866-34.019-8.155-45.903-13.817     c-0.116-0.046-0.233-0.117-0.349-0.163c-0.256,0.233-0.536,0.466-0.862,0.653c-1.165,0.722-28.241,17.755-23.72,53.755     c0.466,3.658-2.19,6.734-5.942,6.874c-1.701,0.07-3.309-0.489-4.614-1.445c-1.608-1.165-2.75-2.936-3.006-4.94     c-3.169-25.328,6.501-42.92,15.588-53.475c-11.744,2.75-26.749,9.507-35.813,25.84c-1.724,3.099-5.825,4.054-9.181,2.097     c-0.233-0.14-0.466-0.28-0.676-0.443c-2.866-2.074-3.891-5.825-2.284-8.715c12.676-22.835,34.532-30.384,49.351-32.831     c-7.014-5.149-10.625-9.064-10.998-9.483c-2.796-3.099-2.563-7.876,0.536-10.672c3.099-2.796,7.852-2.563,10.648,0.512     c0.303,0.35,13.491,14.284,40.543,24.023c5.732,2.074,12.093,3.961,19.107,5.476c3.146,0.676,6.431,1.305,9.856,1.818     C373.687,200.527,376.506,204.372,375.877,208.496z"/>
			<g>
				<path style="fill:#FC09B2;" d="M222.001,292.364c-5.25-6.148-4.019-12.344,0.861-14.859      c14.343-7.388,39.591,11.035,28.548,21.455C246.042,304.026,230.372,302.165,222.001,292.364z"/>
				<path style="fill:#FC09B2;" d="M323.696,340.809c8.082,0.203,12.118-4.657,10.995-10.031c-3.3-15.793-33.514-23.791-34.648-8.65      C299.493,329.489,310.812,340.484,323.696,340.809z"/>
			</g>
			<g style="opacity:0.5;">
				<path style="fill:#FFFFFF;" d="M325.51,112.704c-9.299,27.865-4.579,37.53,5.593,52.25l0.187,0.269      c1.571,2.276-1.083,5.101-3.451,3.673c-22.441-13.526-21.536-42.426-6.351-58.836c1.769-1.91,4.917-0.062,4.097,2.42      L325.51,112.704z"/>
				<path style="fill:#FFFFFF;" d="M184.694,275.728c-5.179,6.33-12.505,18.478-12.358,18.246c-1.655,2.61-5.715,0.842-4.916-2.157      c8.544-31.817,38.119-56.286,63.914-64.228c2.78-0.856,4.6,2.889,2.207,4.544C214.414,245.365,199.203,257.646,184.694,275.728z      "/>
			</g>
			<g style="opacity:0.25;">
				<path style="fill:#000E3F;" d="M390.533,335.649c-0.303,4.101-0.746,8.108-1.305,12.046c-0.14,1.002-0.28,2.004-0.443,2.983      c-0.559,3.751-1.235,7.433-2.004,11.045c-0.21,0.978-0.419,1.934-0.652,2.913c-0.21,0.955-0.443,1.934-0.676,2.889      c-0.233,0.932-0.489,1.887-0.722,2.819c-0.256,0.955-0.513,1.887-0.769,2.819c-0.256,0.932-0.536,1.841-0.792,2.75      c-0.28,0.932-0.559,1.841-0.839,2.726c-1.445,4.52-3.006,8.854-4.73,13.025c-0.699,1.655-1.421,3.286-2.144,4.893      c-1.841,4.008-3.821,7.829-5.918,11.44c-34.881,60.093-134.423,59.534-190.857,7.549      c-23.324-21.507-38.143-50.213-41.289-78.733c23.347-0.117,42.664,20.435,58.135,37.351      c30.99,33.88,79.083,55.899,122.609,31.316c22.998-12.979,25.375-36.932,30.757-60.209      c10.625-45.74-16.916-97.724,20.901-128.97c0.699,1.561,1.352,3.169,1.981,4.73c0.699,1.701,1.351,3.379,2.004,5.08      c1.543,4.011,2.957,8.005,4.268,11.997c0.021,0.061,0.044,0.128,0.066,0.189c0.256,0.769,0.536,1.538,0.769,2.307      c6.501,20.155,10.252,39.961,11.697,58.881c0.35,4.311,0.559,8.551,0.629,12.746      C391.419,320.247,391.186,328.076,390.533,335.649z"/>
				<path style="fill:#000E3F;" d="M359.636,197.987c0.023,0.023,0.047,0.07,0.07,0.093c-7.014-1.514-13.375-3.402-19.107-5.476      c1.002-8.295,7.526-16.194,15.192-20.412c11.674-6.431,25.491-7.153,38.679-9.11c7.713-1.119,15.705-2.959,22.625-6.384      C418.517,172.892,390.277,195.377,359.636,197.987z"/>
			</g>
		</g>
		<g>
			<path style="fill:#000E3F;" d="M416.374,149.055c-4.893-6.594-11.581-6.757-17.476-6.874c-4.986-0.116-9.297-0.209-12.419-3.775     c-1.747-2.004-2.12-4.217-2.517-6.78c-0.582-3.635-1.235-7.736-6.081-11.161c-6.035-4.311-12.652-3.146-18.478-2.097     c-5.546,0.978-10.788,1.911-15.379-1.515c-2.656-2.004-3.565-4.823-4.637-8.085c-0.699-2.19-1.445-4.451-2.773-6.548     c-4.474-7.037-10.066-8.785-13.957-9.017c-6.874-0.396-14.33,3.518-19.922,10.439c-12.676,15.751-13.747,40.706-3.845,61.491     c-3.472-1.818-7.829-1.375-10.882,1.374c-3.262,2.936-4.054,7.62-2.214,11.394c-27.681,7.433-59.207,23.744-86.819,45.46     c-38.33,30.128-61.654,64.52-64.031,94.345c-0.163,2.167-0.256,4.451-0.28,6.78v2.074c0.326,32.412,16.264,66.244,42.594,90.524     c26.959,24.815,64.264,38.889,101.149,38.889c7.037,0,14.05-0.513,20.994-1.561c32.248-4.87,57.786-20.994,71.953-45.367     c25.957-44.668,29.406-111.96,8.738-171.424l-0.21-0.629c-1.771-5.149-3.798-10.974-6.151-16.73     c-0.536-1.328-1.095-2.633-1.678-3.961c3.052-1.235,5.359-4.007,5.895-7.479c0.746-4.754-2.167-9.227-6.617-10.625     c22.136-5.313,40.357-19.549,45.949-31.899C420.218,159.797,419.892,153.832,416.374,149.055z M375.923,238.368l0.21,0.629     c8.668,24.955,12.932,51.821,12.932,77.755c0,33.74-7.223,65.895-21.344,90.197c-13.491,23.254-37.98,38.633-68.947,43.316     c-41.988,6.361-87.471-7.549-118.671-36.256c-25.491-23.511-40.916-56.225-41.243-87.495v-2.004     c0.023-2.213,0.117-4.404,0.28-6.477c4.334-55.083,85.398-120.395,149.452-136.543c1.235,1.212,3.332,3.169,6.315,5.569     c-14.889,3.286-34.415,11.697-46.229,32.971c-0.699,1.235-1.025,2.61-1.025,3.984c0,2.796,1.398,5.616,3.915,7.456     c0.28,0.187,0.559,0.373,0.839,0.559c1.491,0.839,3.146,1.282,4.777,1.282c0.792,0,1.585-0.093,2.33-0.303     c2.167-0.606,3.938-1.981,4.986-3.868c7.2-12.979,18.338-19.689,28.38-23.114c-7.969,11.137-14.866,27.658-12.07,49.98     c0.303,2.516,1.724,4.846,3.845,6.384c1.631,1.188,3.612,1.841,5.592,1.841h0.326c2.423-0.093,4.59-1.118,6.105-2.889     c1.491-1.748,2.144-4.008,1.841-6.338c-4.357-34.718,21.623-51.029,22.742-51.705c0,0,0.023,0,0.023-0.023     c13.934,6.548,29.289,11.114,45.67,13.631c0.28,0.047,0.559,0.07,0.839,0.094c0.023,0.046,0.047,0.093,0.07,0.14     c0.699,1.561,1.351,3.122,1.981,4.683C372.149,227.509,374.083,233.032,375.923,238.368z M304.04,193.677     c-2.027,1.771-4.357,4.007-6.734,6.734c-12.07,2.983-27.239,10.043-36.466,26.679c-0.513,0.909-1.375,1.584-2.447,1.864     c-1.235,0.35-2.656,0.14-3.868-0.559c-0.186-0.093-0.326-0.209-0.489-0.326c-2.051-1.468-2.773-4.055-1.678-6.012     c12.023-21.693,32.644-29.126,46.974-31.619C300.778,191.486,302.339,192.558,304.04,193.677z M316.972,201.179     c-0.489,0.373-1.072,0.816-1.724,1.305c-7.829,6.338-24.582,23.58-20.878,53.033c0.14,1.165-0.163,2.26-0.885,3.099     c-0.746,0.885-1.818,1.375-3.052,1.421h-0.21c-1.118,0-2.167-0.373-3.099-1.025c-1.212-0.885-1.981-2.167-2.167-3.542     c-3.029-24.163,5.988-41.056,14.656-51.331c1.631-1.958,3.262-3.658,4.777-5.103c1.188-1.165,2.307-2.167,3.332-3.029     c1.258,0.769,2.586,1.561,3.984,2.353C313.361,199.292,315.132,200.248,316.972,201.179z M373.803,208.193     c-0.303,1.981-1.678,3.588-3.449,4.264c-0.862,0.326-1.794,0.443-2.75,0.303c-0.629-0.093-1.281-0.21-1.911-0.303     c-7.48-1.235-14.726-2.913-21.716-4.986c-6.85-2.074-13.445-4.544-19.736-7.433c-0.513-0.233-1.002-0.466-1.514-0.699     c-0.14-0.07-0.303-0.14-0.443-0.21c-0.606-0.303-1.212-0.583-1.817-0.885c-0.582-0.28-1.142-0.559-1.701-0.862     c-2.703-1.374-5.219-2.773-7.526-4.124c-1.328-0.816-2.61-1.585-3.798-2.377c-0.699-0.419-1.375-0.862-2.004-1.305     c-1.864-1.235-3.565-2.423-5.056-3.542c-2.983-2.26-5.266-4.217-6.897-5.685c-1.934-1.747-2.936-2.866-3.052-3.005     c-0.14-0.163-0.28-0.327-0.373-0.49c-1.608-2.237-1.305-5.359,0.746-7.223c1.049-0.932,2.353-1.398,3.658-1.398     c1.491,0,2.959,0.606,4.054,1.771c0.047,0.07,1.631,1.771,4.8,4.38c1.328,1.095,2.913,2.33,4.777,3.682     c9.507,6.897,26.144,16.497,50.33,21.856c1.887,0.443,3.845,0.839,5.825,1.188c1.631,0.326,3.285,0.606,4.986,0.862     C372.219,202.438,374.269,205.211,373.803,208.193z M413.461,164.574c-6.035,13.328-28.31,29.079-53.871,31.316     c-25.608-5.616-42.501-16.148-51.122-22.788c-15.052-20.761-16.217-49.771-2.47-66.827c4.474-5.546,10.439-8.901,15.705-8.901     c0.233,0,0.466,0.023,0.699,0.023c4.264,0.256,7.852,2.633,10.672,7.083c1.049,1.655,1.678,3.565,2.33,5.592     c1.118,3.425,2.4,7.34,6.128,10.136c6.035,4.497,12.699,3.332,18.594,2.284c5.499-0.979,10.718-1.888,15.309,1.375     c3.425,2.423,3.845,5.08,4.381,8.412c0.443,2.796,0.955,5.965,3.495,8.878c4.334,4.963,10.276,5.103,15.495,5.22     c5.639,0.117,10.532,0.233,14.19,5.173C415.605,155.091,415.768,159.471,413.461,164.574z"/>
			<path style="fill:#000E3F;" d="M343.351,292.614c-1.054-0.493-2.301-0.034-2.788,1.013c-2.731,5.848-8.813,10.959-14.681,8.931     c-2.141-0.74-3.693-2.269-4.612-4.545c-1.495-3.699-1.076-8.813,1.065-13.029c0.523-1.033,0.112-2.296-0.922-2.819     c-1.033-0.527-2.294-0.112-2.819,0.92c-2.667,5.252-3.143,11.728-1.213,16.5c1.374,3.402,3.841,5.801,7.131,6.938     c1.349,0.466,2.699,0.681,4.025,0.681c6.729,0,12.897-5.532,15.826-11.802C344.853,294.352,344.4,293.104,343.351,292.614z"/>
			<path style="fill:#000E3F;" d="M304.286,291.367c-1.056-0.489-2.298-0.033-2.785,1.015c-3.584,7.685-12.19,14.129-21.096,10.926     c-4.628-1.666-6.833-5.135-7.866-7.751c-1.975-4.998-1.57-11.291,1.054-16.421c0.528-1.032,0.121-2.295-0.91-2.823     c-1.04-0.53-2.294-0.118-2.822,0.911c-3.158,6.172-3.627,13.787-1.222,19.873c1.939,4.907,5.516,8.419,10.346,10.157     c2.094,0.753,4.164,1.097,6.183,1.097c8.824-0.001,16.579-6.57,20.133-14.196C305.79,293.104,305.337,291.856,304.286,291.367z"/>
			<path style="fill:#000E3F;" d="M269.041,257.214c-1.051-0.494-2.296-0.035-2.788,1.013c-2.735,5.847-8.815,10.96-14.684,8.931     c-2.139-0.74-3.691-2.269-4.61-4.545c-1.495-3.699-1.079-8.813,1.063-13.031c0.523-1.032,0.111-2.295-0.921-2.819     c-1.038-0.525-2.296-0.113-2.819,0.922c-2.665,5.251-3.14,11.727-1.21,16.499c1.374,3.402,3.839,5.8,7.129,6.938     c1.349,0.466,2.697,0.681,4.023,0.681c6.729-0.001,12.9-5.532,15.83-11.802C270.543,258.953,270.09,257.705,269.041,257.214z"/>
		</g>
	</g>
	<g>
		<g>
			<path style="fill:#FC09B2;" d="M456.595,290.622c-0.59,0-1.17-0.114-1.723-0.338l-40.808-16.565     c-1.074-0.436-1.941-1.249-2.437-2.291c-0.655-1.5-0.542-3.069,0.287-4.366l56.752-96.984c0.055-0.101,0.023-0.24,0.002-0.274     l-15.814-6.392c-1.39-0.566-2.341-1.835-2.548-3.396c-0.219-1.661,0.459-3.307,1.768-4.297l42.954-32.421     c0.769-0.586,1.668-0.897,2.594-0.897c2.039,0,3.7,1.471,4.041,3.577l8.185,53.192c0.212,1.299-0.173,2.649-1.054,3.684     c-0.86,1.012-2.075,1.593-3.333,1.593c-0.521,0-1.033-0.1-1.518-0.297l-15.885-6.449c0.036,0.025-0.066,0.086-0.105,0.236     l-26.914,109.151C460.563,289.156,458.731,290.622,456.595,290.622z"/>
			<path style="opacity:0.25;fill:#000E3F;" d="M505.218,162.85l2.556,16.638c0.29,1.783-1.485,3.351-3.043,2.718l-15.899-6.454     c-1.164-0.473-2.558,0.312-2.909,1.655l-26.922,109.179c-0.345,1.502-1.921,2.331-3.34,1.755     c-44.558-18.088-41.539-16.56-42.142-17.816c-1.781-3.706,19.842-4.569,21.629-4.66c11.737-0.596,15.008-10.738,18.384-20.049     c4.631-12.774,8.63-25.748,12.376-38.805c7.715-26.89,7.972-27.731,9.607-31.107c2.388-4.934,7.123-12.062,12.566-14.023     C493.267,160.013,500.226,160.902,505.218,162.85z"/>
			<path style="opacity:0.5;fill:#FFFFFF;" d="M489.538,138.294c1.756-0.661,3.053,1.433,1.936,3.132     c-4.645,7.001-14.864,15.065-21.654,17.51c-0.927,0.334-1.869-0.203-2.106-1.201     C466.902,154.337,480.828,141.577,489.538,138.294z"/>
		</g>
		<path style="fill:#000E3F;" d="M497.621,124.497c0.943,0,1.789,0.682,1.971,1.815l5.626,36.538l2.556,16.638    c0.245,1.507-0.986,2.861-2.314,2.861c-0.243,0-0.488-0.045-0.729-0.143l-15.9-6.454c-0.232-0.094-0.473-0.138-0.713-0.138    c-0.965,0-1.915,0.717-2.196,1.793l-26.922,109.179c-0.27,1.175-1.294,1.939-2.407,1.939c-0.309,0-0.625-0.059-0.933-0.184    l-40.809-16.566c-0.633-0.257-1.077-0.716-1.334-1.25c-0.322-0.739-0.312-1.594,0.162-2.336l56.795-97.052    c0.667-1.215,0.232-2.741-0.932-3.214l-15.899-6.454c-1.558-0.633-1.738-2.995-0.305-4.078l42.951-32.419    C496.715,124.647,497.179,124.497,497.621,124.497 M497.621,120.303C497.621,120.303,497.621,120.303,497.621,120.303    c-1.389,0-2.727,0.46-3.871,1.33l-42.939,32.41c-1.913,1.447-2.902,3.839-2.586,6.246c0.306,2.32,1.741,4.213,3.84,5.066    l13.684,5.555l-55.659,95.109c-1.144,1.854-1.301,4.157-0.417,6.184c0.02,0.047,0.041,0.093,0.063,0.138    c0.725,1.51,1.981,2.69,3.537,3.321l40.809,16.566c0.804,0.327,1.649,0.492,2.511,0.492c3.122,0,5.793-2.136,6.495-5.194    l26.382-106.986l13.683,5.554c0.737,0.299,1.513,0.451,2.306,0.451c1.875,0,3.672-0.85,4.933-2.332    c1.28-1.505,1.834-3.472,1.521-5.397l-2.551-16.602l-5.626-36.54C503.235,122.55,500.664,120.303,497.621,120.303L497.621,120.303    z"/>
	</g>
	<g>
		<g>
			<path style="fill:#FD8A02;" d="M97.316,111.349c-9.967-4.77-29.551-17.155-37.292-26.74c-3.721-4.607-3.003-11.357,1.604-15.078     c4.218-3.406,10.235-3.089,14.076,0.525c9.029,8.478,19.956,29.092,23.889,39.179C100.144,110.646,98.68,111.995,97.316,111.349z     "/>
			<path style="fill:#FD8A02;" d="M114.877,99.219c-4.917-7.295-13.361-23.696-14.808-33.398c-0.695-4.663,2.521-9.006,7.184-9.701     c4.27-0.637,8.271,2.009,9.449,6.039c2.777,9.461,1.96,28.018,0.591,36.528C117.101,99.878,115.553,100.213,114.877,99.219z"/>
			<path style="fill:#FD8A02;" d="M83.396,127.384c-6.957-5.383-22.771-14.882-32.357-16.96c-4.607-0.999-9.152,1.926-10.15,6.534     c-0.915,4.219,1.463,8.385,5.407,9.824c9.26,3.39,27.83,3.788,36.411,2.978C83.908,129.647,84.344,128.123,83.396,127.384z"/>
		</g>
		<g>
			<path style="fill:#FD8A02;" d="M428.17,386.254c9.675,5.338,31.136,14.072,43.436,14.799c5.911,0.349,10.986-4.159,11.336-10.07     c0.32-5.412-3.436-10.124-8.609-11.148c-12.147-2.419-35.272,0.674-45.766,3.337C427.098,383.545,426.852,385.52,428.17,386.254z     "/>
			<path style="fill:#FD8A02;" d="M427.831,364.914c8.794-0.24,27.048-2.903,35.783-7.366c4.198-2.145,5.862-7.287,3.717-11.485     c-1.964-3.844-6.442-5.562-10.406-4.178c-9.313,3.241-23.937,14.693-30.065,20.754     C426.003,363.488,426.63,364.943,427.831,364.914z"/>
			<path style="fill:#FD8A02;" d="M423.215,406.903c8.424,2.532,25.347,9.877,32.61,16.469c3.491,3.168,3.752,8.566,0.584,12.057     c-2.901,3.197-7.673,3.684-11.137,1.311c-8.141-5.564-19.26-20.443-23.59-27.896     C421.076,407.801,422.062,406.561,423.215,406.903z"/>
		</g>
	</g>
</g>















</svg>
